<svg width="23" height="20" viewBox="0 0 23 20" fill="none" xmlns="http://www.w3.org/2000/svg">
<path fill-rule="evenodd" clip-rule="evenodd" d="M0 10.2037C0 9.49797 0.468066 8.92589 1.04545 8.92589L21.9545 8.92589C22.5319 8.92589 23 9.49797 23 10.2037C23 10.9094 22.5319 11.4814 21.9545 11.4814L1.04545 11.4814C0.468066 11.4814 0 10.9094 0 10.2037Z" fill="black"/>
<path fill-rule="evenodd" clip-rule="evenodd" d="M12.2465 19.6808C11.8178 19.2563 11.8192 18.5696 12.2497 18.147L20.3409 10.203L12.2498 2.26049C11.8193 1.83786 11.8178 1.15117 12.2464 0.726715C12.6751 0.302265 13.3716 0.300787 13.8022 0.723413L22.6761 9.43445C22.8834 9.63796 23 9.9145 23 10.2029C23 10.4914 22.8835 10.7679 22.6762 10.9715L13.8022 19.6839C13.3717 20.1066 12.6752 20.1052 12.2465 19.6808Z" fill="black"/>
</svg>
