<svg width="20" height="21" viewBox="0 0 20 21" fill="none" xmlns="http://www.w3.org/2000/svg">
<path fill-rule="evenodd" clip-rule="evenodd" d="M2.38286 8.48248L1.60755 14.5025L1.6054 14.5179C1.28959 16.6248 1.71755 17.7183 2.35204 18.3144C3.02513 18.9467 4.13343 19.222 5.61426 19.222H13.9621C15.3814 19.222 16.4919 18.8478 17.1843 18.1456C17.8566 17.4638 18.2683 16.335 18.0069 14.5133L18.0053 14.5026L18.0054 14.5025L17.2318 8.49538C16.8098 6.62817 15.7301 6.04004 14.8957 6.04004H4.71724C4.26576 6.04004 3.77798 6.1938 3.36059 6.55849C2.94877 6.91831 2.56476 7.51994 2.38286 8.48248ZM2.37365 5.42891C3.07983 4.8119 3.92386 4.54004 4.71724 4.54004H14.8957C16.583 4.54004 18.1686 5.77595 18.7037 8.20417C18.7085 8.22585 18.7123 8.24773 18.7151 8.26975L19.4924 14.3056C19.797 16.4355 19.3482 18.0875 18.2524 19.1988C17.1759 20.2906 15.6091 20.722 13.9621 20.722H5.61426C4.02873 20.722 2.42765 20.4435 1.325 19.4076C0.185009 18.3367 -0.229486 16.6501 0.120811 14.3034L0.897865 8.26975C0.899623 8.25611 0.901755 8.24251 0.90426 8.22899C1.13579 6.97874 1.6647 6.04834 2.37365 5.42891Z" fill="white"/>
<path fill-rule="evenodd" clip-rule="evenodd" d="M6.18297 1.4775C7.13813 0.52638 8.43268 -0.00525052 9.78057 3.90981e-05C12.5801 0.000897703 14.8493 2.27065 14.8493 5.07041C14.8493 5.48462 14.5136 5.82041 14.0993 5.82041C13.6851 5.82041 13.3493 5.48462 13.3493 5.07041C13.3493 3.09855 11.7508 1.50004 9.77898 1.50004C9.77792 1.50004 9.77686 1.50004 9.7758 1.50003M9.77497 1.50003C8.82573 1.49623 7.91404 1.87059 7.24139 2.5404C6.56854 3.21041 6.1903 4.12085 6.19031 5.0704C6.19031 5.26931 6.11129 5.46008 5.97064 5.60073C5.82999 5.74139 5.63922 5.82041 5.44031 5.82041C5.02609 5.82041 4.69031 5.48462 4.69031 5.07041C4.6903 3.72194 5.22744 2.429 6.18297 1.4775" fill="white"/>
<path fill-rule="evenodd" clip-rule="evenodd" d="M11.949 9.57373C11.949 9.15952 12.2848 8.82373 12.699 8.82373H12.7447C13.159 8.82373 13.4947 9.15952 13.4947 9.57373C13.4947 9.98794 13.159 10.3237 12.7447 10.3237H12.699C12.2848 10.3237 11.949 9.98794 11.949 9.57373Z" fill="white"/>
<path fill-rule="evenodd" clip-rule="evenodd" d="M6.11829 9.57373C6.11829 9.15952 6.45407 8.82373 6.86829 8.82373H6.91405C7.32827 8.82373 7.66405 9.15952 7.66405 9.57373C7.66405 9.98794 7.32827 10.3237 6.91405 10.3237H6.86829C6.45407 10.3237 6.11829 9.98794 6.11829 9.57373Z" fill="white"/>
</svg>
