<svg width="62" height="39" viewBox="0 0 62 39" fill="none" xmlns="http://www.w3.org/2000/svg">
<path d="M56.532 38.373H4.632C3.4041 38.3717 2.22686 37.8834 1.35851 37.0152C0.490152 36.147 0.00158812 34.9699 0 33.742V4.632C0.00158758 3.40401 0.49012 2.22677 1.35844 1.35844C2.22677 0.49012 3.40401 0.00158758 4.632 0H56.532C57.76 0.00132395 58.9373 0.489805 59.8055 1.35822C60.6737 2.22663 61.1619 3.40402 61.163 4.632V33.742C61.1617 34.9698 60.6734 36.147 59.8052 37.0152C58.937 37.8833 57.7598 38.3717 56.532 38.373ZM4.632 0.392014C3.50755 0.393073 2.42945 0.840218 1.63434 1.63533C0.839226 2.43044 0.392066 3.50855 0.391006 4.63301V33.743C0.392331 34.8672 0.839638 35.9449 1.63475 36.7397C2.42986 37.5344 3.50781 37.9812 4.632 37.982H56.532C57.6559 37.9807 58.7333 37.5336 59.528 36.739C60.3227 35.9443 60.7697 34.8669 60.771 33.743V4.63301C60.77 3.5089 60.3231 2.4311 59.5284 1.63605C58.7337 0.840992 57.6561 0.393602 56.532 0.392014H4.632Z" fill="black"/>
<path d="M15.439 31.7739C15.439 32.1931 15.3146 32.6029 15.0817 32.9514C14.8488 33.2999 14.5177 33.5715 14.1304 33.7318C13.7431 33.8921 13.3169 33.934 12.9058 33.852C12.4947 33.7701 12.1172 33.5681 11.8209 33.2716C11.5246 32.975 11.323 32.5973 11.2414 32.1861C11.1599 31.7749 11.2021 31.3488 11.3628 30.9616C11.5235 30.5744 11.7954 30.2436 12.1442 30.011C12.4929 29.7784 12.9028 29.6545 13.322 29.6549C13.6012 29.651 13.8784 29.7031 14.1372 29.8083C14.3959 29.9134 14.6309 30.0694 14.8283 30.2669C15.0257 30.4645 15.1815 30.6997 15.2863 30.9586C15.3912 31.2174 15.4431 31.4947 15.439 31.7739ZM15.816 31.7739C15.8199 31.2784 15.6765 30.7929 15.404 30.3791C15.1315 29.9652 14.7422 29.6416 14.2854 29.4495C13.8287 29.2574 13.3252 29.2053 12.8388 29.2999C12.3524 29.3945 11.905 29.6315 11.5536 29.9808C11.2022 30.3301 10.9625 30.776 10.8649 31.2618C10.7674 31.7477 10.8165 32.2515 11.0058 32.7094C11.1952 33.1673 11.5164 33.5586 11.9286 33.8336C12.3408 34.1086 12.8254 34.2549 13.321 34.2539C13.6478 34.2553 13.9717 34.1923 14.2742 34.0684C14.5766 33.9445 14.8516 33.7621 15.0835 33.5317C15.3153 33.3014 15.4995 33.0275 15.6253 32.7259C15.7512 32.4243 15.8163 32.1007 15.817 31.7739H15.816ZM13.902 31.2639C13.902 30.9699 13.702 30.9459 13.556 30.9459H12.856V31.5939H13.501C13.718 31.5939 13.903 31.5419 13.903 31.2659L13.902 31.2639ZM14.402 32.9099H13.943C13.8967 32.7099 13.8736 32.5052 13.874 32.2999C13.874 32.1309 13.847 31.9589 13.531 31.9589H12.857V32.9099H12.45V30.5839H13.53C13.902 30.5839 14.314 30.7139 14.314 31.2319C14.3212 31.3336 14.3017 31.4355 14.2575 31.5274C14.2133 31.6193 14.1459 31.698 14.062 31.7559C14.162 31.8149 14.262 31.9159 14.272 32.1769L14.289 32.5769C14.289 32.6939 14.306 32.7189 14.4 32.7769L14.402 32.9099Z" fill="black"/>
<path d="M27.765 24.4962H25.488V23.7262H27.518V22.9262H25.488V22.2262H27.807L28.823 23.3542L27.765 24.4902V24.4962ZM30.017 23.3682L31.436 21.8392V24.9392L30.017 23.3682ZM33.563 23.2042H32.363V22.2262H33.573C33.906 22.2262 34.135 22.3652 34.135 22.7002C34.135 23.0352 33.916 23.2102 33.564 23.2102L33.563 23.2042ZM38.078 23.0122C37.936 23.0781 37.7789 23.105 37.623 23.0902H36.495V22.2252H37.637C37.7871 22.2146 37.9376 22.2371 38.078 22.2912C38.1389 22.3265 38.1887 22.378 38.2221 22.44C38.2555 22.5019 38.271 22.5719 38.267 22.6422C38.2721 22.716 38.2572 22.7899 38.224 22.8561C38.1907 22.9222 38.1403 22.9782 38.078 23.0182V23.0122ZM33.573 21.4202H30.611L29.429 22.6922L28.293 21.4202H24.562V25.3002H28.235L29.42 24.0202L30.559 25.3002H32.359V24.0002H33.512C34.321 24.0002 35.124 23.7752 35.124 22.7002C35.124 21.6252 34.304 21.4262 33.573 21.4262V21.4202ZM38.819 21.6082C38.4704 21.4472 38.0851 21.3823 37.703 21.4202H35.567V25.3002H36.493V23.8882H37.493C37.829 23.8882 38.033 23.9162 38.166 24.0572C38.3011 24.2835 38.3541 24.5494 38.316 24.8102V25.3002H39.247V24.5302C39.275 24.2865 39.2215 24.0404 39.095 23.8302C38.9764 23.6798 38.8181 23.5655 38.638 23.5002C38.8386 23.4144 39.0088 23.2704 39.1265 23.0867C39.2442 22.9031 39.3039 22.6882 39.298 22.4702C39.3095 22.2965 39.2704 22.1231 39.1854 21.9712C39.1004 21.8193 38.9731 21.6952 38.819 21.6142V21.6082ZM42.905 24.4922H40.736V23.7262H42.853V22.9262H40.736V22.2262H42.905V21.4262H39.805V25.3062H42.905V24.4922ZM46.437 23.2542C46.1393 23.0147 45.7591 22.9022 45.379 22.9412L44.879 22.9302C44.7591 22.933 44.6394 22.9178 44.524 22.8852C44.4647 22.8642 44.4135 22.8251 44.3776 22.7734C44.3417 22.7218 44.3229 22.6601 44.324 22.5972C44.3191 22.5427 44.3292 22.4879 44.3531 22.4387C44.3771 22.3896 44.4141 22.3479 44.46 22.3182C44.574 22.2586 44.7034 22.2352 44.831 22.2512H46.531V21.4262H44.672C44.5068 21.4009 44.338 21.4119 44.1774 21.4584C44.0169 21.5049 43.8683 21.5857 43.7421 21.6953C43.6159 21.8049 43.515 21.9406 43.4464 22.093C43.3778 22.2455 43.3432 22.411 43.345 22.5782C43.345 23.8112 44.433 23.7602 45.3 23.7782C45.4143 23.7698 45.5279 23.8008 45.622 23.8662C45.6591 23.8977 45.6885 23.9372 45.7081 23.9817C45.7277 24.0262 45.7369 24.0746 45.735 24.1232C45.7355 24.1709 45.726 24.2181 45.707 24.2619C45.6881 24.3056 45.6601 24.3449 45.625 24.3772C45.5179 24.455 45.3858 24.4907 45.254 24.4772H43.454V25.3082H45.26C46.197 25.3082 46.715 24.9082 46.715 24.0842C46.7295 23.935 46.7122 23.7844 46.6643 23.6424C46.6164 23.5004 46.5389 23.3701 46.437 23.2602V23.2542ZM50.337 24.0772C50.337 24.9022 49.821 25.3012 48.882 25.3012H47.093V24.4702H48.874C49.0067 24.4837 49.1398 24.4482 49.248 24.3702C49.2829 24.3377 49.3107 24.2984 49.3296 24.2547C49.3485 24.211 49.3582 24.1638 49.358 24.1162C49.3597 24.0675 49.3503 24.0191 49.3306 23.9746C49.3108 23.9301 49.2812 23.8906 49.244 23.8592C49.1499 23.7938 49.0363 23.7628 48.922 23.7712C48.057 23.7462 46.967 23.8012 46.967 22.5712C46.967 22.0142 47.321 21.4162 48.296 21.4192H50.147V22.2502H48.447C48.3201 22.2346 48.1914 22.258 48.078 22.3172C48.0321 22.3469 47.9951 22.3886 47.9711 22.4377C47.9472 22.4869 47.9371 22.5417 47.942 22.5962C47.9409 22.6591 47.9597 22.7208 47.9956 22.7724C48.0315 22.8241 48.0827 22.8632 48.142 22.8842C48.2571 22.9168 48.3764 22.932 48.496 22.9292L48.996 22.9402C49.3765 22.9009 49.7571 23.0134 50.055 23.2532C50.1583 23.3636 50.2369 23.4947 50.2857 23.6378C50.3345 23.7809 50.3523 23.9327 50.338 24.0832L50.337 24.0772Z" fill="black"/>
<path d="M19.225 16.9609L19.857 15.4179L20.489 16.9609H19.225ZM34.458 16.3489C34.3163 16.4148 34.1596 16.4417 34.004 16.4269H32.876V15.5649H34.017C34.1671 15.5526 34.318 15.5752 34.458 15.6309C34.5189 15.6658 34.5689 15.7169 34.6026 15.7785C34.6364 15.84 34.6524 15.9097 34.649 15.9799C34.6528 16.0528 34.6371 16.1254 34.6035 16.1903C34.57 16.2551 34.5197 16.3099 34.458 16.3489ZM42.48 16.9609L41.848 15.4179L41.216 16.9609H42.48ZM27.521 14.7559H25.978L24.862 17.3879L23.654 14.7559H22.137V18.4289L20.567 14.7559H19.187L17.527 18.6369H18.538L18.893 17.7679H20.823L21.18 18.6369H23.066V15.5929L24.413 18.6369H25.227L26.573 15.5989V18.6369H27.523L27.521 14.7559ZM31.307 17.8299H29.14V17.0619H31.256V16.2619H29.14V15.5619H31.307V14.7529H28.213V18.6339H31.307V17.8299ZM35.201 14.9459C34.8524 14.7846 34.4672 14.7194 34.085 14.7569H31.95V18.6379H32.876V17.2249H33.87C34.208 17.2249 34.411 17.2549 34.543 17.3959C34.6795 17.6216 34.7332 17.8878 34.695 18.1489V18.6389H35.629V17.8689C35.6568 17.625 35.603 17.3788 35.476 17.1689C35.3575 17.0194 35.2 16.9056 35.021 16.8399C35.2215 16.7541 35.3915 16.61 35.509 16.4263C35.6266 16.2426 35.6861 16.0278 35.68 15.8099C35.6932 15.6346 35.6548 15.4592 35.5695 15.3055C35.4842 15.1518 35.3557 15.0264 35.2 14.9449L35.201 14.9459ZM36.212 18.6379H37.16V14.7549H36.207L36.212 18.6379ZM48.127 18.6379H46.807L45.054 15.7299V18.6379H43.168L42.811 17.7689H40.883L40.528 18.6379H39.45C39.1938 18.673 38.9328 18.6471 38.6885 18.5623C38.4442 18.4775 38.2234 18.3361 38.0441 18.1497C37.8648 17.9633 37.7321 17.7371 37.6569 17.4897C37.5816 17.2423 37.5659 16.9805 37.611 16.7259C37.5902 16.4528 37.6237 16.1784 37.7095 15.9184C37.7953 15.6583 37.9318 15.4179 38.111 15.2109C38.3036 15.0446 38.5277 14.9188 38.7699 14.8408C39.0121 14.7628 39.2675 14.7343 39.521 14.7569H40.407V15.5899H39.542C39.4129 15.5731 39.2817 15.5849 39.1578 15.6247C39.0338 15.6645 38.9202 15.7311 38.825 15.8199C38.6259 16.0673 38.5286 16.3813 38.553 16.6979C38.5228 17.0238 38.6167 17.3491 38.816 17.6089C38.9954 17.758 39.2266 17.83 39.459 17.8089H39.877L41.177 14.7589H42.556L44.127 18.4299V14.7589H45.542L47.173 17.4589V14.7589H48.126L48.127 18.6379Z" fill="black"/>
<path d="M50.4829 20.661H48.7659C48.3552 20.6397 47.9482 20.7485 47.6029 20.972V20.661H45.0709C44.6766 20.6408 44.2865 20.7501 43.9599 20.972V20.661H39.4359V20.972C39.0531 20.7585 38.6202 20.6511 38.1819 20.661H35.1949V20.972C34.807 20.7295 34.3506 20.6203 33.8949 20.661H30.5459L29.7789 21.49L29.0669 20.661H24.0669V26.069H28.9669L29.7529 25.225L30.4979 26.065H33.5149V24.796H33.8149C34.2509 24.8203 34.6873 24.7564 35.0979 24.608V26.07H37.5979V24.654H37.7199C37.8719 24.654 37.8829 24.667 37.8829 24.812V26.07H45.4509C45.8973 26.0866 46.3382 25.967 46.7149 25.727V26.07H49.1149C49.5807 26.0856 50.0444 26.0014 50.4749 25.823V35.731H17.5189V19.401H19.1039L19.4609 18.534H20.2609L20.6179 19.401H23.7339V18.746L24.0139 19.406H25.6269L25.9059 18.735V19.405H33.6429V17.989H33.7929C33.9039 17.989 33.9319 18.003 33.9319 18.175V19.405H37.9319V19.069C38.3916 19.3018 38.9018 19.4172 39.4169 19.405H41.1019L41.4649 18.538H42.2649L42.6229 19.405H45.8589V18.583L46.3589 19.405H48.9589V13.998H46.3879V14.635L46.0189 13.998H43.3789V14.635L43.0529 13.998H39.4879C38.953 13.9698 38.4196 14.0767 37.9369 14.309V13.998H35.4779V14.309C35.1766 14.0827 34.8039 13.9723 34.4279 13.998H25.4339L24.8269 15.392L24.2099 13.998H21.3809V14.635L21.0619 13.998H18.6439L17.5279 16.563V2.646H50.4919L50.4829 20.661Z" fill="black"/>
</svg>
