<svg width="62" height="39" viewBox="0 0 62 39" fill="none" xmlns="http://www.w3.org/2000/svg">
<path d="M56.526 38.371H4.632C3.4041 38.3697 2.22686 37.8814 1.35851 37.0132C0.490152 36.1451 0.00158812 34.9679 0 33.74V4.632C0.00185146 3.40409 0.490467 2.227 1.35873 1.35873C2.227 0.490467 3.40409 0.00185146 4.632 0H56.532C57.7599 0.00158812 58.937 0.490152 59.8052 1.35851C60.6734 2.22686 61.1617 3.4041 61.163 4.632V33.74C61.1617 34.9689 60.6725 36.1469 59.803 37.0153C58.9335 37.8836 57.7549 38.3713 56.526 38.371ZM4.62601 0.391006C3.50155 0.392066 2.42345 0.839226 1.62834 1.63434C0.833229 2.42945 0.386069 3.50755 0.38501 4.632V33.74C0.386598 34.8641 0.833989 35.9417 1.62904 36.7364C2.4241 37.5311 3.50189 37.9779 4.62601 37.979H56.526C57.6498 37.9777 58.7273 37.5306 59.522 36.736C60.3167 35.9413 60.7637 34.8639 60.765 33.74V4.632C60.7642 3.50781 60.3174 2.42986 59.5227 1.63475C58.7279 0.839638 57.6502 0.392331 56.526 0.391006H4.62601Z" fill="black"/>
<path d="M26.897 25.952C26.827 25.952 26.7599 25.9242 26.7104 25.8747C26.6609 25.8252 26.6331 25.758 26.6331 25.688V17.088C26.6339 16.2587 26.9637 15.4635 27.5501 14.8771C28.1365 14.2906 28.9317 13.9608 29.761 13.96H32.2991C33.1262 13.9629 33.9186 14.2933 34.5027 14.879C35.0869 15.4646 35.4153 16.2578 35.416 17.085V18.913C35.4155 19.7424 35.0858 20.5378 34.4993 21.1243C33.9128 21.7108 33.1175 22.0405 32.2881 22.041H28.703C28.6671 22.0432 28.631 22.0381 28.5971 22.0258C28.5632 22.0136 28.5322 21.9945 28.506 21.9698C28.4797 21.9452 28.4588 21.9154 28.4445 21.8823C28.4302 21.8492 28.4228 21.8135 28.4228 21.7775C28.4228 21.7415 28.4302 21.7058 28.4445 21.6727C28.4588 21.6397 28.4797 21.6099 28.506 21.5852C28.5322 21.5605 28.5632 21.5414 28.5971 21.5292C28.631 21.517 28.6671 21.5118 28.703 21.514H32.2881C32.9776 21.514 33.6389 21.2401 34.1265 20.7525C34.6141 20.2649 34.888 19.6036 34.888 18.914V17.086C34.8881 16.3985 34.6158 15.739 34.1308 15.2518C33.6458 14.7645 32.9875 14.4892 32.3 14.486H29.7621C29.0725 14.486 28.4112 14.7599 27.9236 15.2475C27.436 15.7351 27.162 16.3965 27.162 17.086V25.686C27.1623 25.7209 27.1557 25.7556 27.1424 25.7879C27.1292 25.8202 27.1097 25.8496 27.0851 25.8743C27.0604 25.8991 27.0311 25.9187 26.9989 25.932C26.9666 25.9453 26.932 25.9521 26.897 25.952ZM38.138 22.087C38.1033 22.0871 38.069 22.0804 38.0369 22.0672C38.0048 22.054 37.9756 22.0345 37.9511 22.01C37.9265 21.9854 37.9071 21.9563 37.8939 21.9242C37.8807 21.8921 37.8739 21.8577 37.8741 21.823V15.398C37.8738 15.1565 37.7777 14.9249 37.6069 14.7541C37.4361 14.5833 37.2046 14.4873 36.963 14.487H35.8631C35.7929 14.487 35.7256 14.4591 35.676 14.4095C35.6264 14.3599 35.5986 14.2927 35.5986 14.2225C35.5986 14.1524 35.6264 14.0851 35.676 14.0355C35.7256 13.9859 35.7929 13.958 35.8631 13.958H36.963C37.3445 13.9588 37.7101 14.1108 37.9797 14.3808C38.2493 14.6507 38.4008 15.0165 38.401 15.398V21.819C38.4016 21.8539 38.3952 21.8885 38.3822 21.9209C38.3692 21.9533 38.3499 21.9827 38.3255 22.0076C38.301 22.0324 38.2718 22.0521 38.2396 22.0656C38.2075 22.0791 38.1729 22.086 38.138 22.086V22.087Z" fill="black"/>
<path d="M37.902 13.2312L37.402 12.7312C37.3426 12.6716 37.3092 12.5909 37.3092 12.5067C37.3092 12.4226 37.3426 12.3418 37.402 12.2822L37.902 11.7822C37.9616 11.7228 38.0423 11.6895 38.1265 11.6895C38.2106 11.6895 38.2914 11.7228 38.351 11.7822L38.851 12.2822C38.9104 12.3418 38.9438 12.4226 38.9438 12.5067C38.9438 12.5909 38.9104 12.6716 38.851 12.7312L38.351 13.2312C38.2914 13.2906 38.2106 13.324 38.1265 13.324C38.0423 13.324 37.9616 13.2906 37.902 13.2312Z" fill="black"/>
<path d="M41.342 22.0311H40.25C40.1799 22.0311 40.1126 22.0032 40.063 21.9536C40.0134 21.904 39.9855 21.8367 39.9855 21.7666C39.9855 21.6964 40.0134 21.6291 40.063 21.5795C40.1126 21.5299 40.1799 21.5021 40.25 21.5021H41.342C41.8334 21.5003 42.3043 21.3053 42.653 20.9591L45.204 18.4051C45.4126 18.1961 45.6957 18.0785 45.991 18.0781C46.1372 18.0776 46.282 18.1063 46.4169 18.1625C46.5519 18.2186 46.6743 18.3011 46.777 18.4051L49.32 20.9501C49.4921 21.1222 49.6965 21.2587 49.9215 21.3515C50.1465 21.4443 50.3876 21.4918 50.631 21.4911H51.518C51.5881 21.4911 51.6554 21.5189 51.705 21.5685C51.7546 21.6181 51.7825 21.6854 51.7825 21.7556C51.7825 21.8257 51.7546 21.893 51.705 21.9426C51.6554 21.9922 51.5881 22.0201 51.518 22.0201H50.631C50.3179 22.0208 50.0078 21.9593 49.7187 21.8392C49.4296 21.719 49.1673 21.5425 48.947 21.3201L46.402 18.7751C46.2928 18.6655 46.1447 18.6037 45.99 18.6031C45.9132 18.6032 45.8372 18.6184 45.7664 18.6479C45.6955 18.6775 45.6312 18.7207 45.577 18.7751L43.028 21.3271C42.5808 21.7748 41.9748 22.0279 41.342 22.0311ZM45.991 17.9071C45.8448 17.9075 45.7 17.8788 45.5651 17.8227C45.4301 17.7665 45.3077 17.6841 45.205 17.5801L42.651 15.0261C42.303 14.6795 41.8322 14.4843 41.341 14.4831H40.249C40.213 14.4853 40.177 14.4801 40.1431 14.4679C40.1092 14.4556 40.0782 14.4366 40.0519 14.4119C40.0257 14.3872 40.0047 14.3574 39.9904 14.3243C39.9761 14.2913 39.9688 14.2556 39.9688 14.2196C39.9688 14.1835 39.9761 14.1479 39.9904 14.1148C40.0047 14.0817 40.0257 14.0519 40.0519 14.0272C40.0782 14.0025 40.1092 13.9835 40.1431 13.9713C40.177 13.959 40.213 13.9538 40.249 13.9561H41.341C41.9729 13.9585 42.5784 14.21 43.026 14.6561L45.578 17.2101C45.6872 17.3194 45.8354 17.3809 45.99 17.3811C46.1439 17.3804 46.2913 17.3189 46.4 17.2101L48.946 14.6651C49.1664 14.4427 49.4287 14.2663 49.7178 14.1461C50.0069 14.026 50.3169 13.9644 50.63 13.9651H51.517C51.5871 13.9651 51.6544 13.9929 51.704 14.0425C51.7536 14.0921 51.7815 14.1594 51.7815 14.2296C51.7815 14.2997 51.7536 14.367 51.704 14.4166C51.6544 14.4662 51.5871 14.4941 51.517 14.4941H50.63C50.3864 14.4935 50.1452 14.5411 49.9201 14.6343C49.6951 14.7275 49.4908 14.8644 49.319 15.0371L46.774 17.5821C46.6718 17.6862 46.5498 17.7688 46.4151 17.8249C46.2804 17.8811 46.1359 17.9097 45.99 17.9091L45.991 17.9071Z" fill="black"/>
<path d="M20.389 23.3982C20.1195 23.3992 19.8524 23.3467 19.6033 23.2437C19.3543 23.1407 19.1281 22.9893 18.938 22.7982L16.844 20.7042C16.7696 20.6336 16.671 20.5942 16.5685 20.5942C16.4659 20.5942 16.3673 20.6336 16.293 20.7042L14.193 22.8042C14.0025 22.995 13.7761 23.1463 13.5269 23.2492C13.2777 23.3522 13.0106 23.4049 12.741 23.4042H12.329L14.982 26.0572C15.3799 26.4549 15.9194 26.6783 16.482 26.6783C17.0445 26.6783 17.5841 26.4549 17.982 26.0572L20.642 23.3972L20.389 23.3982Z" fill="black"/>
<path d="M12.7401 15.9881C13.0096 15.9872 13.2766 16.0397 13.5257 16.1427C13.7747 16.2457 14.0009 16.3971 14.1911 16.5881L16.291 18.6881C16.3644 18.7606 16.4634 18.8012 16.5665 18.8012C16.6697 18.8012 16.7687 18.7606 16.842 18.6881L18.9361 16.5881C19.1262 16.397 19.3523 16.2456 19.6014 16.1427C19.8505 16.0397 20.1175 15.9871 20.3871 15.9881H20.6391L17.979 13.3281C17.5811 12.9304 17.0416 12.707 16.479 12.707C15.9165 12.707 15.377 12.9304 14.979 13.3281L12.326 15.9811L12.7401 15.9881Z" fill="black"/>
<path d="M22.844 18.1949L21.235 16.5879C21.1989 16.6029 21.1602 16.6107 21.121 16.6109H20.39C20.0101 16.6119 19.6459 16.7624 19.376 17.0299L17.276 19.1299C17.1831 19.2238 17.0724 19.2983 16.9504 19.3492C16.8285 19.4 16.6977 19.4262 16.5655 19.4262C16.4334 19.4262 16.3026 19.4 16.1806 19.3492C16.0587 19.2983 15.948 19.2238 15.855 19.1299L13.755 17.0299C13.4845 16.7623 13.1196 16.6118 12.739 16.6109H11.839C11.802 16.6099 11.7655 16.6025 11.731 16.5889L10.118 18.2019C9.92102 18.3989 9.76473 18.6327 9.6581 18.8901C9.55147 19.1474 9.49658 19.4233 9.49658 19.7019C9.49658 19.9805 9.55147 20.2563 9.6581 20.5137C9.76473 20.7711 9.92102 21.0049 10.118 21.2019L11.731 22.8149C11.7655 22.8013 11.802 22.7939 11.839 22.7929H12.739C13.12 22.792 13.4851 22.6407 13.755 22.3719L15.855 20.2719C16.0466 20.0886 16.3014 19.9863 16.5665 19.9863C16.8316 19.9863 17.0865 20.0886 17.278 20.2719L19.378 22.3719C19.6479 22.6393 20.0121 22.7899 20.392 22.7909H21.123C21.1622 22.7911 21.2009 22.7989 21.237 22.8139L22.846 21.2069C23.2432 20.8087 23.4662 20.2693 23.4662 19.7069C23.4662 19.1445 23.2432 18.6051 22.846 18.2069L22.844 18.1949Z" fill="black"/>
<path d="M29.08 24.9572C28.9473 24.9627 28.8155 24.9825 28.687 25.0162V25.5402C28.7851 25.5742 28.8882 25.5911 28.992 25.5902C29.255 25.5902 29.38 25.5022 29.38 25.2712C29.38 25.0402 29.28 24.9562 29.08 24.9562V24.9572ZM28.598 25.9292V24.8932H28.67L28.678 24.9382C28.8122 24.9026 28.9495 24.8805 29.088 24.8722C29.1838 24.8651 29.2789 24.8928 29.356 24.9502C29.3987 24.9913 29.4316 25.0415 29.4522 25.0971C29.4728 25.1526 29.4806 25.2122 29.475 25.2712C29.48 25.3366 29.4671 25.4021 29.4376 25.4608C29.4082 25.5194 29.3634 25.569 29.308 25.6042C29.2133 25.6511 29.1086 25.6741 29.003 25.6712C28.8961 25.671 28.7899 25.6545 28.688 25.6222V25.9272L28.598 25.9292Z" fill="black"/>
<path d="M30.136 24.9529C29.873 24.9529 29.756 25.0339 29.756 25.2659C29.756 25.4979 29.872 25.5899 30.136 25.5899C30.4 25.5899 30.513 25.5099 30.513 25.2789C30.513 25.0479 30.397 24.9529 30.136 24.9529ZM30.472 25.5899C30.3715 25.6519 30.2538 25.6803 30.136 25.6709C30.017 25.6805 29.8979 25.6522 29.796 25.5899C29.7485 25.5526 29.7111 25.5039 29.6873 25.4483C29.6636 25.3927 29.6542 25.3321 29.66 25.2719C29.6545 25.2116 29.6641 25.151 29.6878 25.0953C29.7116 25.0396 29.7487 24.9907 29.796 24.9529C29.9007 24.8995 30.0165 24.8716 30.134 24.8716C30.2515 24.8716 30.3674 24.8995 30.472 24.9529C30.515 24.9941 30.5492 25.0435 30.5726 25.0983C30.596 25.153 30.608 25.2119 30.608 25.2714C30.608 25.3309 30.596 25.3898 30.5726 25.4446C30.5492 25.4993 30.515 25.5488 30.472 25.5899Z" fill="black"/>
<path d="M31.7151 25.6511L31.4221 25.0221H31.4161L31.1281 25.6511H31.0491L30.7371 24.8931H30.8371L31.0971 25.5291H31.1031L31.3851 24.8931H31.4661L31.7561 25.5291H31.7621L32.0161 24.8931H32.1111L31.7991 25.6511H31.7151Z" fill="black"/>
<path d="M32.6711 24.9521C32.4281 24.9521 32.345 25.0601 32.33 25.2161H33.012C33.004 25.0421 32.9121 24.9521 32.6711 24.9521ZM32.6711 25.6721C32.5591 25.6842 32.4467 25.6539 32.3561 25.5871C32.3139 25.5469 32.2813 25.4977 32.2607 25.4432C32.2401 25.3887 32.232 25.3302 32.237 25.2721C32.2342 25.2109 32.2454 25.1499 32.2698 25.0937C32.2943 25.0375 32.3313 24.9877 32.3781 24.9481C32.4674 24.8914 32.5724 24.8644 32.678 24.8711C32.7831 24.8659 32.8875 24.8916 32.978 24.9451C33.0276 24.9874 33.0656 25.0417 33.0883 25.1028C33.1111 25.1638 33.1179 25.2297 33.108 25.2941H32.33C32.33 25.4501 32.385 25.5881 32.679 25.5881C32.8103 25.5852 32.9411 25.5712 33.07 25.5461V25.6241C32.9384 25.6519 32.8045 25.6677 32.67 25.6711L32.6711 25.6721Z" fill="black"/>
<path d="M33.3621 25.6511V24.8921H33.4341L33.4421 24.9371C33.5635 24.897 33.6902 24.8747 33.8181 24.8711H33.8291V24.9561H33.8091C33.6875 24.9581 33.5669 24.9779 33.4511 25.0151V25.6501L33.3621 25.6511Z" fill="black"/>
<path d="M34.344 24.9521C34.1 24.9521 34.018 25.0601 34.003 25.2161H34.685C34.677 25.0421 34.585 24.9521 34.344 24.9521ZM34.344 25.6721C34.2318 25.6841 34.1191 25.6538 34.028 25.5871C33.9482 25.4984 33.906 25.3822 33.9103 25.263C33.9146 25.1438 33.9651 25.0309 34.051 24.9481C34.1403 24.8914 34.2454 24.8644 34.351 24.8711C34.4561 24.866 34.5604 24.8917 34.651 24.9451C34.7006 24.9874 34.7385 25.0417 34.7613 25.1028C34.784 25.1638 34.7908 25.2297 34.781 25.2941H34.003C34.003 25.4501 34.058 25.5881 34.352 25.5881C34.4833 25.5851 34.6141 25.5711 34.743 25.5461V25.6241C34.6114 25.6518 34.4775 25.6675 34.343 25.6711L34.344 25.6721Z" fill="black"/>
<path d="M35.747 25.0028C35.6483 24.9686 35.5444 24.9516 35.44 24.9528C35.177 24.9528 35.053 25.0408 35.053 25.2718C35.053 25.5028 35.153 25.5868 35.353 25.5868C35.4856 25.5809 35.6173 25.5614 35.746 25.5288V25.0028H35.747ZM35.764 25.6508L35.756 25.6058C35.6219 25.6413 35.4845 25.6634 35.346 25.6718C35.2923 25.6791 35.2376 25.6737 35.1863 25.656C35.135 25.6383 35.0887 25.6088 35.0509 25.5699C35.0131 25.5309 34.985 25.4837 34.9689 25.4319C34.9528 25.3801 34.949 25.3253 34.958 25.2718C34.9528 25.2062 34.9658 25.1405 34.9956 25.0819C35.0254 25.0233 35.0709 24.9741 35.127 24.9398C35.2218 24.8911 35.3275 24.8673 35.434 24.8708C35.5401 24.8716 35.6455 24.8878 35.747 24.9188V24.5718H35.836V25.6498L35.764 25.6508Z" fill="black"/>
<path d="M37.135 24.9558C37.002 24.9614 36.8699 24.9811 36.741 25.0148V25.5378C36.8395 25.573 36.9434 25.5906 37.048 25.5898C37.311 25.5898 37.435 25.5018 37.435 25.2708C37.435 25.0398 37.335 24.9558 37.135 24.9558ZM37.36 25.6038C37.267 25.6503 37.164 25.6733 37.06 25.6708C36.9444 25.6704 36.8296 25.6515 36.72 25.6148V25.6508H36.661V24.5728H36.749V24.9348C36.8801 24.9013 37.014 24.8802 37.149 24.8718C37.2451 24.8645 37.3407 24.8922 37.418 24.9498C37.4607 24.9909 37.4936 25.0411 37.5142 25.0967C37.5348 25.1522 37.5426 25.2118 37.537 25.2708C37.542 25.3364 37.5289 25.4022 37.4991 25.4609C37.4693 25.5196 37.4239 25.569 37.368 25.6038H37.36Z" fill="black"/>
<path d="M37.647 25.944V25.861C37.691 25.861 37.732 25.869 37.76 25.869C37.8113 25.8733 37.8625 25.8602 37.9053 25.8317C37.9482 25.8032 37.9801 25.761 37.996 25.712L38.026 25.653L37.626 24.894H37.726L38.064 25.548H38.07L38.392 24.894H38.492L38.065 25.745C38.0426 25.8096 37.9995 25.865 37.9423 25.9025C37.8851 25.9399 37.8171 25.9573 37.749 25.952C37.7122 25.9516 37.6754 25.949 37.639 25.944H37.647Z" fill="black"/>
<path d="M39.72 25.2178H39.426V25.4838H39.726C39.926 25.4838 40.005 25.4618 40.005 25.3508C40.005 25.2398 39.905 25.2178 39.725 25.2178H39.72ZM39.665 24.7878H39.426V25.0588H39.667C39.867 25.0588 39.947 25.0338 39.947 24.9228C39.947 24.8118 39.847 24.7878 39.665 24.7878ZM40.122 25.5798C39.9729 25.648 39.8076 25.673 39.645 25.6518H39.196V24.6238H39.634C39.783 24.6065 39.9339 24.6293 40.071 24.6898C40.1043 24.7109 40.1312 24.7407 40.1488 24.7759C40.1664 24.8112 40.1741 24.8505 40.171 24.8898C40.174 24.9404 40.1596 24.9905 40.1304 25.0319C40.1011 25.0733 40.0587 25.1036 40.01 25.1178V25.1238C40.0708 25.1282 40.1275 25.1559 40.1681 25.2013C40.2088 25.2466 40.2303 25.3059 40.228 25.3668C40.2313 25.4086 40.2227 25.4505 40.2033 25.4876C40.1838 25.5248 40.1543 25.5557 40.118 25.5768L40.122 25.5798Z" fill="black"/>
<path d="M41.134 25.3369C41.045 25.3309 40.956 25.3259 40.86 25.3259C40.705 25.3259 40.652 25.3569 40.652 25.4259C40.652 25.4949 40.697 25.5259 40.815 25.5259C40.9226 25.5223 41.0295 25.5072 41.134 25.4809V25.3369ZM41.178 25.6559V25.6109C41.0435 25.6483 40.9053 25.6704 40.7659 25.6769C40.6855 25.6822 40.6053 25.663 40.536 25.6219C40.508 25.6006 40.4857 25.5728 40.4709 25.5409C40.4561 25.509 40.4493 25.474 40.451 25.4389C40.4487 25.3955 40.4598 25.3524 40.4827 25.3154C40.5055 25.2785 40.5391 25.2493 40.579 25.2319C40.6695 25.1989 40.7658 25.185 40.862 25.1909C40.942 25.1909 41.048 25.1909 41.137 25.2019V25.1879C41.137 25.0709 41.059 25.0319 40.846 25.0319C40.763 25.0319 40.663 25.0319 40.566 25.0449V24.8919C40.672 24.8839 40.793 24.8779 40.892 24.8779C41.0142 24.8673 41.137 24.8916 41.246 24.9479C41.2838 24.9788 41.3129 25.0191 41.3304 25.0647C41.348 25.1102 41.3533 25.1596 41.346 25.2079V25.6569L41.178 25.6559Z" fill="black"/>
<path d="M42.331 25.6509V25.2319C42.331 25.0939 42.261 25.0439 42.131 25.0439C42.0262 25.0488 41.9223 25.0649 41.821 25.0919V25.6509H41.61V24.8919H41.782L41.79 24.9409C41.9218 24.9021 42.0577 24.8789 42.195 24.8719C42.2884 24.864 42.3814 24.8919 42.455 24.9499C42.4854 24.9807 42.5086 25.0178 42.5229 25.0586C42.5373 25.0994 42.5424 25.1429 42.538 25.1859V25.6509H42.331Z" fill="black"/>
<path d="M43.14 25.672C43.0391 25.6799 42.9387 25.6515 42.857 25.5919C42.8141 25.551 42.7811 25.5008 42.7605 25.4452C42.7398 25.3895 42.7322 25.33 42.738 25.271C42.7339 25.2084 42.7459 25.1459 42.7726 25.0892C42.7994 25.0325 42.8401 24.9836 42.891 24.9469C42.9924 24.8902 43.108 24.8642 43.224 24.8719C43.312 24.8719 43.398 24.8779 43.492 24.8859V25.049C43.415 25.041 43.325 25.0349 43.251 25.0349C43.051 25.0349 42.951 25.0989 42.951 25.2729C42.951 25.4469 43.021 25.5079 43.186 25.5079C43.2932 25.5042 43.4 25.4912 43.505 25.4689V25.6239C43.3839 25.6526 43.2603 25.669 43.136 25.6729L43.14 25.672Z" fill="black"/>
<path d="M44.134 25.03C43.934 25.03 43.844 25.094 43.844 25.266C43.844 25.438 43.932 25.513 44.134 25.513C44.336 25.513 44.42 25.45 44.42 25.278C44.42 25.106 44.335 25.029 44.134 25.029V25.03ZM44.497 25.592C44.3869 25.6548 44.2603 25.6827 44.134 25.672C44.0071 25.6823 43.8799 25.6545 43.769 25.592C43.7242 25.5516 43.6884 25.5022 43.6639 25.4471C43.6394 25.392 43.6267 25.3323 43.6267 25.272C43.6267 25.2116 43.6394 25.152 43.6639 25.0969C43.6884 25.0418 43.7242 24.9924 43.769 24.952C43.8831 24.8993 44.0073 24.8721 44.133 24.8721C44.2587 24.8721 44.3829 24.8993 44.497 24.952C44.5418 24.9924 44.5776 25.0418 44.6021 25.0969C44.6266 25.152 44.6393 25.2116 44.6393 25.272C44.6393 25.3323 44.6266 25.392 44.6021 25.4471C44.5776 25.5022 44.5418 25.5516 44.497 25.592Z" fill="black"/>
<path d="M45.86 25.6711C45.7285 25.6795 45.5981 25.642 45.491 25.5651C45.4341 25.51 45.3902 25.4429 45.3625 25.3687C45.3348 25.2945 45.3241 25.215 45.331 25.1361C45.3259 25.0516 45.3422 24.9672 45.3786 24.8908C45.415 24.8144 45.4702 24.7484 45.539 24.6991C45.6714 24.6246 45.8224 24.5898 45.974 24.5991C46.088 24.5991 46.206 24.6071 46.334 24.6181V24.8031C46.224 24.7941 46.088 24.7861 45.983 24.7861C45.69 24.7861 45.565 24.8971 45.565 25.1351C45.565 25.3731 45.681 25.4841 45.897 25.4841C46.0517 25.4789 46.2054 25.4585 46.356 25.4231V25.6061C46.1919 25.6438 46.0244 25.6652 45.856 25.6701L45.86 25.6711Z" fill="black"/>
<path d="M46.9769 25.0071C46.8019 25.0071 46.7339 25.0712 46.7199 25.1852H47.2299C47.2299 25.0632 47.1529 25.0071 46.9769 25.0071ZM46.9459 25.6722C46.8323 25.6826 46.7186 25.6525 46.6249 25.5872C46.5844 25.5442 46.5528 25.4937 46.5318 25.4385C46.5109 25.3833 46.501 25.3245 46.5029 25.2655C46.5048 25.2065 46.5183 25.1484 46.5427 25.0946C46.567 25.0409 46.6018 24.9925 46.6449 24.9522C46.7445 24.8914 46.8606 24.8635 46.9769 24.8722C47.0918 24.865 47.2062 24.8918 47.3059 24.9492C47.4279 25.0342 47.4389 25.1671 47.4409 25.3231H46.7209C46.7209 25.4391 46.7879 25.5142 47.0009 25.5142C47.135 25.5106 47.2687 25.4976 47.4009 25.4752V25.6222C47.2503 25.6515 47.0974 25.6682 46.9439 25.6722H46.9459Z" fill="black"/>
<path d="M48.382 25.651V25.232C48.382 25.094 48.31 25.044 48.182 25.044C48.0773 25.049 47.9733 25.0651 47.872 25.092V25.651H47.661V24.892H47.833L47.841 24.941C47.9729 24.9023 48.1088 24.8791 48.246 24.872C48.3395 24.8638 48.4325 24.8917 48.506 24.95C48.5364 24.9808 48.5596 25.0179 48.574 25.0587C48.5883 25.0995 48.5935 25.143 48.589 25.186V25.651H48.382Z" fill="black"/>
<path d="M49.194 25.672C49.1472 25.6768 49.0999 25.6693 49.0568 25.6504C49.0137 25.6315 48.9762 25.6017 48.948 25.564C48.906 25.495 48.8864 25.4147 48.892 25.334V25.051H48.739V24.893H48.892L48.914 24.665H49.102V24.893H49.402V25.051H49.102V25.294C49.0989 25.3437 49.1064 25.3935 49.124 25.44C49.1371 25.4644 49.1573 25.4843 49.182 25.4968C49.2067 25.5093 49.2346 25.5139 49.262 25.51C49.313 25.509 49.3639 25.5036 49.414 25.494V25.646C49.3421 25.662 49.2687 25.6711 49.195 25.673L49.194 25.672Z" fill="black"/>
<path d="M49.608 25.6511V24.8921H49.78L49.788 24.9411C49.9094 24.9 50.036 24.8768 50.164 24.8721H50.191V25.0521C50.168 25.0521 50.139 25.0521 50.117 25.0521C50.0158 25.0525 49.915 25.0656 49.817 25.0911V25.6511H49.608Z" fill="black"/>
<path d="M50.96 25.3368C50.871 25.3308 50.782 25.3258 50.686 25.3258C50.533 25.3258 50.478 25.3568 50.478 25.4258C50.478 25.4948 50.523 25.5258 50.642 25.5258C50.7493 25.5223 50.8559 25.5072 50.96 25.4808V25.3368ZM51.005 25.6558L50.999 25.6108C50.8646 25.6483 50.7264 25.6704 50.587 25.6768C50.5066 25.6818 50.4265 25.6626 50.357 25.6218C50.3276 25.5967 50.3048 25.5647 50.2906 25.5286C50.2764 25.4926 50.2712 25.4536 50.2755 25.4152C50.2799 25.3767 50.2936 25.3398 50.3155 25.3079C50.3373 25.2759 50.3667 25.2498 50.401 25.2318C50.4921 25.1986 50.5892 25.1846 50.686 25.1908C50.764 25.1908 50.871 25.1908 50.96 25.2018V25.1878C50.96 25.0708 50.882 25.0318 50.669 25.0318C50.586 25.0318 50.486 25.0318 50.39 25.0448V24.8918C50.496 24.8838 50.615 24.8778 50.716 24.8778C50.8376 24.8674 50.9596 24.8917 51.068 24.9478C51.1061 24.9785 51.1353 25.0188 51.1529 25.0644C51.1705 25.1101 51.1757 25.1595 51.168 25.2078V25.6568L51.005 25.6558Z" fill="black"/>
<path d="M51.444 24.5732H51.656V25.6512H51.444V24.5732Z" fill="black"/>
</svg>
