<svg width="62" height="39" viewBox="0 0 62 39" fill="none" xmlns="http://www.w3.org/2000/svg">
<path d="M56.532 38.371H4.632C3.40402 38.3699 2.22663 37.8817 1.35822 37.0135C0.489805 36.1453 0.00132395 34.968 0 33.74V4.632C0.00158758 3.40401 0.49012 2.22675 1.35844 1.35843C2.22677 0.490104 3.40401 0.00158758 4.632 0H56.532C57.76 0.00132395 58.9373 0.48979 59.8055 1.3582C60.6737 2.22661 61.1619 3.40402 61.163 4.632V33.74C61.1619 34.9679 60.6737 36.1452 59.8055 37.0134C58.9372 37.8817 57.7599 38.3699 56.532 38.371ZM4.632 0.391006C3.50746 0.391801 2.42922 0.838864 1.63405 1.63403C0.838879 2.4292 0.391801 3.50746 0.391006 4.632V33.74C0.392331 34.8642 0.839638 35.9419 1.63475 36.7367C2.42986 37.5314 3.50781 37.9782 4.632 37.979H56.532C57.6559 37.9777 58.7333 37.5306 59.528 36.736C60.3227 35.9413 60.7697 34.8639 60.771 33.74V4.632C60.7702 3.50781 60.3234 2.42986 59.5287 1.63475C58.7339 0.839638 57.6562 0.392331 56.532 0.391006H4.632Z" fill="black"/>
<path d="M17.313 15.0612C17.8969 14.8673 18.5154 14.7992 19.1275 14.8616C19.7397 14.9239 20.3317 15.1152 20.8645 15.4229C21.3974 15.7307 21.859 16.1478 22.219 16.6468C22.579 17.1459 22.8291 17.7155 22.953 18.3182L25.933 17.7092C25.7235 16.6845 25.299 15.7159 24.6875 14.8674C24.076 14.0189 23.2914 13.3098 22.3856 12.787C21.4798 12.2641 20.4733 11.9394 19.4327 11.8343C18.3921 11.7292 17.3411 11.8461 16.349 12.1772L17.313 15.0612Z" fill="black"/>
<path d="M13.797 24.7223L15.813 22.4423C15.3519 22.0346 14.9827 21.5336 14.7299 20.9724C14.477 20.4113 14.3462 19.8028 14.3462 19.1873C14.3462 18.5718 14.477 17.9634 14.7299 17.4022C14.9827 16.8411 15.3519 16.34 15.813 15.9323L13.797 13.6533C13.0131 14.3466 12.3853 15.1985 11.9554 16.1526C11.5254 17.1067 11.3031 18.1413 11.3031 19.1878C11.3031 20.2343 11.5254 21.2689 11.9554 22.2231C12.3853 23.1772 13.0131 24.0291 13.797 24.7223Z" fill="black"/>
<path d="M22.951 20.0581C22.8267 20.6602 22.5762 21.2292 22.2162 21.7276C21.8561 22.226 21.3946 22.6424 20.862 22.9496C20.3294 23.2568 19.7378 23.4478 19.1261 23.5099C18.5144 23.572 17.8965 23.5039 17.313 23.3101L16.347 26.1961C17.3388 26.5261 18.3893 26.6423 19.4292 26.537C20.4691 26.4317 21.4749 26.1072 22.3804 25.5851C23.2858 25.0629 24.0704 24.3548 24.6824 23.5075C25.2944 22.6602 25.72 21.6928 25.931 20.6691L22.951 20.0581Z" fill="black"/>
<path d="M28.535 22.5382C28.4188 22.3449 28.3149 22.1445 28.224 21.9382C27.7614 20.8548 27.7387 19.6339 28.1608 18.5341C28.5828 17.4343 29.4164 16.542 30.485 16.0462C31.1528 15.7586 31.8799 15.6358 32.6051 15.688C33.3303 15.7402 34.0323 15.9659 34.652 16.3462C35.5066 16.865 36.1621 17.656 36.513 18.5922C36.571 18.7252 36.619 18.8672 36.669 18.9922L28.535 22.5382ZM31.25 17.8072C30.7916 17.9979 30.4095 18.3354 30.1634 18.7666C29.9173 19.1978 29.8211 19.6985 29.89 20.1901L33.981 18.4291C33.6722 18.0216 33.2297 17.7358 32.7312 17.6221C32.2327 17.5083 31.71 17.5739 31.255 17.8072H31.25ZM34.491 21.6381L34.406 21.5801C34.1432 21.9945 33.7591 22.3178 33.306 22.5062C32.9314 22.705 32.5063 22.7883 32.0843 22.7458C31.6623 22.7033 31.2624 22.5367 30.935 22.2671L30.879 22.3532L29.835 23.9082C30.0934 24.0873 30.3699 24.2388 30.66 24.3601C31.6166 24.7452 32.6765 24.7901 33.6622 24.4871C34.6479 24.1842 35.4997 23.552 36.075 22.6961L34.491 21.6381Z" fill="black"/>
<path d="M39.518 13.7632V22.3952L40.859 22.9402L40.097 24.7192L38.615 24.1022C38.3179 23.9726 38.0647 23.7597 37.886 23.4892C37.6879 23.1682 37.5885 22.7962 37.6 22.4192V13.7632H39.518Z" fill="black"/>
<path d="M42.994 20.1949C42.9941 19.8457 43.069 19.5006 43.2137 19.1829C43.3585 18.8651 43.5696 18.5821 43.833 18.3529L42.456 16.8179C41.9779 17.2411 41.5952 17.7609 41.333 18.3431C41.0709 18.9252 40.9353 19.5564 40.9353 20.1949C40.9353 20.8333 41.0709 21.4645 41.333 22.0467C41.5952 22.6288 41.9779 23.1487 42.456 23.5719L43.832 22.0349C43.5689 21.8059 43.358 21.5232 43.2134 21.2057C43.0689 20.8883 42.9941 20.5436 42.994 20.1949Z" fill="black"/>
<path d="M45.4411 22.6458C45.1773 22.6449 44.9154 22.602 44.6651 22.5188L44.0081 24.4738C44.4688 24.629 44.9519 24.7077 45.438 24.7068C46.4771 24.7078 47.4846 24.3501 48.2904 23.6942C49.0963 23.0383 49.651 22.1244 49.8611 21.1069L47.841 20.6938C47.7263 21.2455 47.4251 21.7408 46.9879 22.0963C46.5508 22.4519 46.0045 22.6459 45.4411 22.6458Z" fill="black"/>
<path d="M45.446 15.687C44.9604 15.6868 44.4779 15.7644 44.017 15.917L44.668 17.875C44.9968 17.7656 45.3451 17.7273 45.6899 17.7624C46.0346 17.7976 46.368 17.9055 46.668 18.079C46.9679 18.2526 47.2277 18.4877 47.4301 18.7691C47.6324 19.0504 47.7728 19.3714 47.842 19.711L49.864 19.301C49.6568 18.2818 49.1039 17.3654 48.2989 16.7069C47.4938 16.0483 46.486 15.6881 45.446 15.687Z" fill="black"/>
</svg>
