<svg width="62" height="39" viewBox="0 0 62 39" fill="none" xmlns="http://www.w3.org/2000/svg">
<path d="M56.531 38.373H4.631C3.40327 38.3714 2.22628 37.883 1.35815 37.0149C0.49001 36.1467 0.00158758 34.9697 0 33.742V4.632C0.001323 3.4041 0.489622 2.22686 1.35779 1.35851C2.22595 0.490152 3.4031 0.00158812 4.631 0H56.531C57.759 0.00132395 58.9363 0.489805 59.8045 1.35822C60.6727 2.22663 61.1609 3.40402 61.162 4.632V33.742C61.1607 34.9698 60.6723 36.147 59.8042 37.0152C58.936 37.8833 57.7588 38.3717 56.531 38.373ZM4.633 0.392014C3.50889 0.393602 2.4313 0.840992 1.63662 1.63605C0.841939 2.4311 0.395063 3.5089 0.394005 4.63301V33.743C0.395328 34.8669 0.842359 35.9443 1.63704 36.739C2.43172 37.5336 3.50916 37.9807 4.633 37.982H56.533C57.6569 37.9807 58.7343 37.5336 59.529 36.739C60.3236 35.9443 60.7707 34.8669 60.772 33.743V4.63301C60.7709 3.5089 60.3241 2.4311 59.5294 1.63605C58.7347 0.840992 57.6571 0.393602 56.533 0.392014H4.633Z" fill="black"/>
<path d="M37.4531 8.31689H23.7111C20.8282 8.31689 18.0633 9.46214 16.0248 11.5007C13.9863 13.5392 12.8411 16.304 12.8411 19.1869C12.8411 22.0698 13.9863 24.8346 16.0248 26.8732C18.0633 28.9117 20.8282 30.0569 23.7111 30.0569H37.4531C40.336 30.0569 43.1008 28.9117 45.1393 26.8732C47.1778 24.8346 48.3231 22.0698 48.3231 19.1869C48.3231 16.304 47.1778 13.5392 45.1393 11.5007C43.1008 9.46214 40.336 8.31689 37.4531 8.31689ZM23.7111 29.8169C21.609 29.8169 19.5542 29.1936 17.8065 28.0258C16.0587 26.8579 14.6965 25.1981 13.8921 23.2561C13.0877 21.314 12.8772 19.1771 13.2873 17.1155C13.6974 15.0538 14.7096 13.1601 16.1959 11.6738C17.6823 10.1874 19.576 9.17519 21.6376 8.76511C23.6993 8.35502 25.8362 8.5655 27.7782 9.3699C29.7202 10.1743 31.3801 11.5365 32.5479 13.2843C33.7157 15.0321 34.3391 17.0869 34.3391 19.1889C34.3389 20.5845 34.0639 21.9663 33.5297 23.2556C32.9956 24.5449 32.2127 25.7163 31.2258 26.703C30.2389 27.6897 29.0673 28.4724 27.7779 29.0063C26.4885 29.5403 25.1066 29.815 23.7111 29.8149V29.8169Z" fill="black"/>
<path d="M17.213 19.1868C17.2132 20.5367 17.6336 21.8531 18.416 22.9532C19.1984 24.0534 20.3039 24.8826 21.579 25.3258L21.566 13.0508C20.2938 13.496 19.1915 14.3257 18.4116 15.425C17.6317 16.5243 17.2128 17.8389 17.213 19.1868Z" fill="black"/>
<path d="M25.8521 13.0508L25.8391 25.3258C27.1133 24.8829 28.2181 24.0547 29.0004 22.9558C29.7828 21.8569 30.2038 20.5418 30.2053 19.1929C30.2067 17.844 29.7884 16.528 29.0084 15.4275C28.2284 14.3269 27.1253 13.4963 25.8521 13.0508Z" fill="black"/>
</svg>
