<svg width="62" height="39" viewBox="0 0 62 39" fill="none" xmlns="http://www.w3.org/2000/svg">
<path d="M56.532 38.373H4.632C3.4041 38.3717 2.22685 37.8834 1.3585 37.0152C0.490143 36.147 0.00158812 34.9699 0 33.742V4.632C0.00158758 3.40401 0.49011 2.22677 1.35843 1.35844C2.22676 0.49012 3.404 0.00158758 4.632 0H56.532C57.76 0.00158758 58.9372 0.49012 59.8056 1.35844C60.6739 2.22677 61.1624 3.40401 61.164 4.632V33.742C61.1624 34.9699 60.6739 36.147 59.8055 37.0152C58.9371 37.8834 57.7599 38.3717 56.532 38.373ZM4.635 0.392014C3.51062 0.393337 2.43268 0.84058 1.63762 1.63564C0.842566 2.43069 0.395322 3.50863 0.393999 4.63301V33.743C0.395587 34.8671 0.84298 35.9447 1.63803 36.7394C2.43309 37.5341 3.51089 37.981 4.635 37.982H56.535C57.6592 37.9812 58.7371 37.5344 59.5323 36.7397C60.3274 35.9449 60.7747 34.8672 60.776 33.743V4.63301C60.7749 3.50855 60.3278 2.43044 59.5327 1.63533C58.7376 0.840218 57.6595 0.393073 56.535 0.392014H4.635Z" fill="black"/>
<path d="M37.0769 12.3713C33.7049 12.3713 31.3349 14.1643 31.3129 16.7293C31.2929 18.6293 33.0079 19.6883 34.2989 20.3193C35.6309 20.9653 36.0749 21.3803 36.0709 21.9573C36.0579 22.8413 35.0049 23.2453 34.0269 23.2453C32.9177 23.2791 31.817 23.0423 30.8199 22.5553L30.3769 22.3443L29.8999 25.3003C31.1112 25.7709 32.4004 26.0084 33.6999 26.0003C37.2809 26.0003 39.6089 24.2283 39.6369 21.4903C39.6509 19.9853 38.7369 18.8443 36.7699 17.9023C35.5819 17.2903 34.8469 16.8853 34.8579 16.2643C34.8579 15.7163 35.4749 15.1293 36.8129 15.1293C37.6902 15.1088 38.5611 15.2819 39.3639 15.6363L39.6689 15.7883L40.1319 12.9263C39.1566 12.5527 38.1203 12.3638 37.0759 12.3693L37.0769 12.3713ZM26.4869 12.6033L24.3539 25.8103H27.7619L29.8969 12.6033H26.4869ZM21.4929 12.6163L18.1549 21.6163L17.7999 19.7883C16.9632 17.4182 15.279 15.4416 13.0719 14.2393L16.1279 25.7973H19.7369L25.1049 12.6193L21.4929 12.6163ZM46.2459 12.6163C45.8672 12.5707 45.4842 12.6546 45.1592 12.8543C44.8342 13.054 44.5863 13.3578 44.4559 13.7163L39.3929 25.8163H42.9749C42.9749 25.8163 43.5599 24.1883 43.6929 23.8323L48.0589 23.8383C48.1589 24.3003 48.4739 25.8163 48.4739 25.8163H51.6399L48.8789 12.6163H46.2459ZM46.4849 16.1783L46.7129 17.3163C46.7129 17.3163 47.3669 20.4683 47.5049 21.1273H44.6739C44.9569 20.3703 46.0319 17.4353 46.0319 17.4353C46.0119 17.4713 46.3119 16.6713 46.4839 16.1773L46.4849 16.1783Z" fill="black"/>
<path d="M15.059 12.6072H9.55895L9.52795 12.8352C11.3722 13.2253 13.0919 14.064 14.5347 15.2771C15.9775 16.4902 17.099 18.0403 17.8 19.7902L16.6 13.7202C16.5236 13.3776 16.3241 13.0749 16.0392 12.8697C15.7544 12.6645 15.4041 12.5711 15.055 12.6072" fill="black"/>
</svg>
