<svg width="62" height="39" viewBox="0 0 62 39" fill="none" xmlns="http://www.w3.org/2000/svg">
<path d="M56.532 38.373H4.632C3.4041 38.3717 2.22685 37.8834 1.35849 37.0152C0.490141 36.147 0.00158812 34.9699 0 33.742V4.632C0.00158758 3.40401 0.490108 2.22677 1.35843 1.35844C2.22676 0.49012 3.404 0.00158758 4.632 0H56.532C57.76 0.00158758 58.9372 0.49012 59.8056 1.35844C60.6739 2.22677 61.1624 3.40401 61.164 4.632V33.742C61.1624 34.9699 60.6739 36.147 59.8055 37.0152C58.9371 37.8834 57.7599 38.3717 56.532 38.373ZM4.635 0.392014C3.51054 0.393073 2.43244 0.840218 1.63733 1.63533C0.842213 2.43044 0.395056 3.50855 0.393997 4.63301V33.743C0.395321 34.8672 0.842633 35.9449 1.63774 36.7397C2.43286 37.5344 3.51081 37.9812 4.635 37.982H56.535C57.6591 37.981 58.7369 37.5341 59.532 36.7394C60.327 35.9447 60.7744 34.8671 60.776 33.743V4.63301C60.7747 3.50863 60.3274 2.43069 59.5324 1.63564C58.7373 0.84058 57.6594 0.393337 56.535 0.392014H4.635Z" fill="black"/>
<path d="M20.5449 31.392V29.7659C20.5544 29.6293 20.5347 29.4921 20.4869 29.3637C20.4392 29.2353 20.3646 29.1185 20.2682 29.0212C20.1717 28.9239 20.0556 28.8483 19.9276 28.7995C19.7996 28.7506 19.6627 28.7296 19.5259 28.7379C19.3471 28.7261 19.1684 28.7626 19.0085 28.8435C18.8486 28.9244 18.7133 29.0469 18.6169 29.198C18.5287 29.0515 18.4027 28.9315 18.2521 28.8505C18.1014 28.7696 17.9318 28.7307 17.7609 28.7379C17.612 28.73 17.4636 28.7612 17.3305 28.8284C17.1973 28.8956 17.0841 28.9965 17.0019 29.121V28.802H16.4389V31.392H17.0089V29.955C16.9957 29.8662 17.0026 29.7757 17.029 29.69C17.0554 29.6043 17.1006 29.5256 17.1615 29.4597C17.2223 29.3938 17.2971 29.3423 17.3804 29.3091C17.4638 29.276 17.5535 29.2619 17.6429 29.2679C18.0149 29.2679 18.2059 29.5119 18.2059 29.9499V31.3909H18.7739V29.9539C18.7626 29.8656 18.7707 29.7758 18.7978 29.6909C18.8249 29.606 18.8703 29.5281 18.9307 29.4626C18.9911 29.3971 19.0652 29.3456 19.1476 29.3118C19.2301 29.278 19.3189 29.2627 19.4079 29.267C19.7929 29.267 19.9779 29.5109 19.9779 29.9489V31.39L20.5449 31.392ZM28.9639 28.802H28.0419V28.0119H27.4739V28.7979H26.9479V29.313H27.4739V30.4949C27.4739 31.0949 27.7069 31.453 28.3739 31.453C28.6214 31.4534 28.8641 31.3841 29.0739 31.2529L28.9129 30.7709C28.7612 30.861 28.5893 30.9115 28.4129 30.918C28.1309 30.918 28.0389 30.7439 28.0389 30.4839V29.3119H28.9609L28.9639 28.802ZM33.7639 28.7379C33.6267 28.7342 33.491 28.7674 33.3711 28.8341C33.2511 28.9008 33.1512 28.9985 33.0819 29.1169V28.802H32.5249V31.392H33.0879V29.94C33.0879 29.513 33.2709 29.2729 33.6399 29.2729C33.7605 29.2719 33.88 29.2943 33.9919 29.3389L34.1639 28.8089C34.0357 28.7624 33.9004 28.7387 33.7639 28.739V28.7379ZM26.4999 29.009C26.1814 28.8188 25.8147 28.7247 25.4439 28.7379C24.7879 28.7379 24.3659 29.0509 24.3659 29.5659C24.3659 29.9889 24.6809 30.248 25.2599 30.33L25.5259 30.369C25.8339 30.411 25.9809 30.493 25.9809 30.64C25.9809 30.84 25.7739 30.953 25.3889 30.953C25.0796 30.9623 24.7762 30.8668 24.5279 30.6819L24.2619 31.1219C24.5906 31.3505 24.9838 31.4679 25.3839 31.457C26.1319 31.457 26.5659 31.105 26.5659 30.612C26.5659 30.158 26.2229 29.9189 25.6599 29.8369L25.3959 29.7989C25.1519 29.7659 24.9559 29.7179 24.9559 29.5439C24.9559 29.3549 25.1409 29.244 25.4489 29.244C25.7328 29.248 26.0109 29.3244 26.2569 29.466L26.4999 29.009ZM41.5939 28.7379C41.4564 28.734 41.3204 28.7671 41.2 28.8337C41.0797 28.9004 40.9795 28.9982 40.9099 29.1169V28.802H40.3529V31.392H40.9159V29.94C40.9159 29.513 41.1009 29.2729 41.4679 29.2729C41.5885 29.2717 41.7081 29.2941 41.8199 29.3389L41.9939 28.8089C41.8657 28.7626 41.7303 28.7389 41.5939 28.739V28.7379ZM34.3339 30.0959C34.3264 30.2784 34.3571 30.4605 34.4242 30.6304C34.4913 30.8003 34.5932 30.9543 34.7234 31.0824C34.8536 31.2105 35.0091 31.3099 35.1801 31.3743C35.3511 31.4386 35.5336 31.4664 35.7159 31.4559C36.0538 31.4731 36.3859 31.3632 36.6469 31.1479L36.3759 30.6929C36.181 30.8416 35.9431 30.9234 35.6979 30.9259C35.4868 30.9132 35.2885 30.8204 35.1435 30.6664C34.9986 30.5125 34.9178 30.309 34.9178 30.0975C34.9178 29.886 34.9986 29.6824 35.1435 29.5285C35.2885 29.3745 35.4868 29.2817 35.6979 29.2689C35.9431 29.2715 36.181 29.3533 36.3759 29.502L36.6469 29.0469C36.3859 28.8316 36.0538 28.7218 35.7159 28.739C35.5338 28.7285 35.3514 28.7562 35.1806 28.8205C35.0098 28.8847 34.8543 28.9839 34.7241 29.1118C34.594 29.2397 34.492 29.3934 34.4248 29.5631C34.3576 29.7328 34.3267 29.9146 34.3339 30.097V30.0959ZM39.6109 30.0959V28.802H39.0499V29.1169C38.954 28.993 38.8297 28.894 38.6876 28.828C38.5454 28.7621 38.3895 28.7312 38.2329 28.7379C37.8853 28.7568 37.558 28.9082 37.3186 29.161C37.0792 29.4138 36.9457 29.7488 36.9457 30.097C36.9457 30.4451 37.0792 30.7801 37.3186 31.0329C37.558 31.2857 37.8853 31.4371 38.2329 31.4559C38.3895 31.4627 38.5454 31.4318 38.6876 31.3659C38.8297 31.2999 38.954 31.2008 39.0499 31.0769V31.392H39.6149L39.6109 30.0959ZM37.5109 30.0959C37.5197 29.9432 37.573 29.7964 37.6642 29.6735C37.7555 29.5507 37.8806 29.4572 38.0243 29.4047C38.168 29.3521 38.3239 29.3427 38.4729 29.3777C38.6219 29.4127 38.7573 29.4905 38.8626 29.6015C38.9679 29.7126 39.0383 29.852 39.0653 30.0026C39.0924 30.1532 39.0747 30.3084 39.0146 30.4491C38.9544 30.5898 38.8544 30.7098 38.7269 30.7944C38.5994 30.8789 38.4499 30.9243 38.2969 30.925C38.1896 30.9266 38.083 30.9059 37.9841 30.8643C37.8851 30.8226 37.7959 30.7609 37.722 30.683C37.6481 30.605 37.5912 30.5126 37.5549 30.4116C37.5186 30.3105 37.5036 30.2031 37.5109 30.0959ZM30.7109 28.7379C30.3591 28.7555 30.0277 28.909 29.7867 29.166C29.5457 29.423 29.4139 29.7635 29.4189 30.1158C29.424 30.4681 29.5656 30.8046 29.8138 31.0546C30.0621 31.3046 30.3977 31.4485 30.7499 31.4559C31.1362 31.4697 31.514 31.3404 31.8109 31.093L31.5339 30.677C31.3202 30.8487 31.0551 30.9441 30.7809 30.948C30.5947 30.9637 30.4096 30.9064 30.2649 30.788C30.1203 30.6697 30.0274 30.4996 30.0059 30.3139H31.9289C31.9349 30.2439 31.9399 30.1729 31.9399 30.0959C31.9562 29.9243 31.9365 29.7512 31.8822 29.5876C31.8278 29.4241 31.74 29.2736 31.6243 29.1458C31.5085 29.0181 31.3675 28.9158 31.2101 28.8456C31.0526 28.7754 30.8823 28.7387 30.7099 28.7379H30.7109ZM30.6999 29.2379C30.8702 29.2347 31.0349 29.2991 31.1578 29.417C31.2808 29.5349 31.352 29.6967 31.3559 29.8669H30.0209C30.0305 29.6931 30.1078 29.5299 30.2362 29.4124C30.3646 29.2948 30.5339 29.2322 30.7079 29.2379H30.6999ZM44.8349 30.0939V27.759H44.2719V29.112C44.1758 28.988 44.0514 28.8889 43.9091 28.8229C43.7667 28.757 43.6107 28.7261 43.4539 28.733C43.1063 28.7518 42.779 28.9032 42.5396 29.156C42.3002 29.4088 42.1667 29.7438 42.1667 30.0919C42.1667 30.4401 42.3002 30.7751 42.5396 31.0279C42.779 31.2807 43.1063 31.4321 43.4539 31.451C43.6107 31.4578 43.7667 31.4269 43.9091 31.361C44.0514 31.295 44.1758 31.1959 44.2719 31.0719V31.3869H44.8349V30.0939ZM42.7349 30.0939C42.7435 29.9409 42.7967 29.7937 42.888 29.6706C42.9793 29.5474 43.1046 29.4537 43.2485 29.4009C43.3925 29.3482 43.5487 29.3387 43.6979 29.3737C43.8472 29.4087 43.9829 29.4866 44.0884 29.5978C44.1938 29.7091 44.2644 29.8488 44.2914 29.9997C44.3184 30.1506 44.3007 30.306 44.2403 30.447C44.18 30.5879 44.0797 30.708 43.9519 30.7926C43.824 30.8772 43.6742 30.9225 43.5209 30.9229C43.4136 30.9244 43.3072 30.9037 43.2083 30.862C43.1094 30.8203 43.0202 30.7585 42.9464 30.6806C42.8725 30.6027 42.8156 30.5104 42.7792 30.4094C42.7428 30.3084 42.7278 30.201 42.7349 30.0939ZM23.7099 30.0939V28.802H23.1469V29.1169C23.0506 28.9932 22.9261 28.8943 22.7839 28.8284C22.6416 28.7624 22.4856 28.7314 22.3289 28.7379C21.9813 28.7568 21.654 28.9082 21.4146 29.161C21.1752 29.4138 21.0417 29.7488 21.0417 30.097C21.0417 30.4451 21.1752 30.7801 21.4146 31.0329C21.654 31.2857 21.9813 31.4371 22.3289 31.4559C22.4856 31.4624 22.6416 31.4314 22.7839 31.3655C22.9261 31.2996 23.0506 31.2007 23.1469 31.0769V31.392H23.7099V30.0939ZM21.6099 30.0939C21.6187 29.9412 21.672 29.7944 21.7632 29.6715C21.8545 29.5487 21.9796 29.4552 22.1233 29.4027C22.267 29.3501 22.4229 29.3407 22.5719 29.3757C22.7208 29.4107 22.8563 29.4885 22.9616 29.5995C23.0668 29.7106 23.1373 29.85 23.1643 30.0006C23.1914 30.1512 23.1737 30.3064 23.1136 30.4471C23.0534 30.5878 22.9534 30.7078 22.8259 30.7924C22.6984 30.8769 22.5489 30.9223 22.3959 30.9229C22.2899 30.9228 22.1849 30.9008 22.0876 30.8585C21.9904 30.8162 21.9028 30.7544 21.8304 30.6768C21.7579 30.5993 21.7021 30.5078 21.6665 30.4079C21.6308 30.308 21.616 30.2018 21.6229 30.0959L21.6099 30.0939ZM45.7679 31.0139C45.8023 31.0136 45.8364 31.0204 45.8679 31.0339C45.8994 31.047 45.9282 31.0656 45.9529 31.0889C45.9767 31.1126 45.9954 31.1408 46.0079 31.1719C46.0276 31.2188 46.0329 31.2705 46.0231 31.3203C46.0133 31.3702 45.9889 31.416 45.9529 31.4519C45.9282 31.4756 45.8994 31.4945 45.8679 31.5079C45.8364 31.5215 45.8023 31.5283 45.7679 31.528C45.7334 31.5283 45.6991 31.5217 45.6671 31.5084C45.6351 31.4952 45.6062 31.4756 45.5819 31.451C45.5585 31.4276 45.5395 31.4001 45.5259 31.3699C45.5124 31.3384 45.5053 31.3043 45.5053 31.2699C45.5053 31.2356 45.5124 31.2015 45.5259 31.17C45.5394 31.1391 45.5584 31.111 45.5819 31.0869C45.6057 31.0633 45.6339 31.0447 45.6649 31.0319C45.7016 31.0165 45.7413 31.0096 45.7809 31.0119L45.7679 31.0139ZM45.7679 31.4729C45.7947 31.4726 45.8212 31.4672 45.8459 31.457C45.8696 31.4465 45.891 31.4315 45.9089 31.4129C45.9278 31.3952 45.9422 31.3733 45.9509 31.349C45.9619 31.3244 45.9674 31.2978 45.9669 31.2709C45.9671 31.2441 45.9616 31.2176 45.9509 31.1929C45.9309 31.1485 45.8953 31.113 45.8509 31.093C45.8263 31.0825 45.7997 31.0771 45.7729 31.0771C45.7461 31.0771 45.7196 31.0825 45.6949 31.093C45.6706 31.1017 45.6487 31.1161 45.6309 31.1349C45.6124 31.1525 45.598 31.1741 45.5889 31.198C45.5783 31.2226 45.5728 31.2491 45.5729 31.276C45.5725 31.3028 45.578 31.3294 45.5889 31.354C45.5977 31.3783 45.6121 31.4002 45.6309 31.418C45.649 31.4369 45.6708 31.4519 45.6949 31.4619C45.7224 31.4722 45.7517 31.4766 45.7809 31.4749L45.7679 31.4729ZM45.7839 31.151C45.8092 31.1492 45.8342 31.157 45.8539 31.1729C45.8623 31.1793 45.869 31.1877 45.8733 31.1973C45.8777 31.2069 45.8796 31.2174 45.8789 31.2279C45.8794 31.237 45.8779 31.246 45.8746 31.2545C45.8713 31.2629 45.8664 31.2705 45.8599 31.2769C45.8441 31.2917 45.8236 31.3006 45.8019 31.302L45.8799 31.3909H45.8189L45.7469 31.302H45.7239V31.3909H45.6719V31.1519L45.7839 31.151ZM45.7249 31.196V31.2599H45.7839C45.7948 31.26 45.8055 31.2573 45.8149 31.252C45.819 31.2492 45.8223 31.2454 45.8246 31.2411C45.8268 31.2367 45.828 31.2319 45.8279 31.2269C45.8277 31.2224 45.8264 31.2179 45.8241 31.2139C45.8219 31.21 45.8187 31.2065 45.8149 31.2039C45.8055 31.1986 45.7948 31.1959 45.7839 31.196H45.7249ZM45.4199 22.7769V22.4619H45.5469V22.3979H45.2249V22.4619H45.3519V22.7769H45.4199ZM46.0459 22.7769V22.3979H45.9459L45.8319 22.6579L45.7189 22.3979H45.6189V22.7769H45.6879V22.491L45.7939 22.7379H45.8679L45.9739 22.491V22.7769H46.0459ZM29.7199 24.6629C29.7949 24.7289 29.8759 24.7929 29.9549 24.8569C28.4858 25.8337 26.7792 26.3936 25.0169 26.477C23.2547 26.5605 21.5028 26.1644 19.9479 25.3309C18.393 24.4975 17.0932 23.2578 16.1871 21.7441C15.281 20.2303 14.8025 18.4992 14.8025 16.735C14.8025 14.9707 15.281 13.2396 16.1871 11.7258C17.0932 10.2121 18.393 8.97243 19.9479 8.13896C21.5028 7.30549 23.2547 6.9094 25.0169 6.99287C26.7792 7.07634 28.4858 7.63624 29.9549 8.61294C29.8769 8.67694 29.7969 8.74094 29.7199 8.80694C28.5849 9.79259 27.6748 11.0105 27.051 12.3782C26.4273 13.746 26.1045 15.2317 26.1045 16.735C26.1045 18.2382 26.4273 19.7239 27.051 21.0917C27.6748 22.4594 28.5849 23.6773 29.7199 24.6629ZM36.6099 6.98195C34.6881 6.97867 32.8086 7.54634 31.2099 8.61294C31.2879 8.67694 31.3679 8.74094 31.4449 8.80694C32.58 9.79259 33.4901 11.0105 34.1139 12.3782C34.7376 13.746 35.0604 15.2317 35.0604 16.735C35.0604 18.2382 34.7376 19.7239 34.1139 21.0917C33.4901 22.4594 32.58 23.6773 31.4449 24.6629C31.3699 24.7289 31.2889 24.7929 31.2099 24.8629C32.4774 25.7052 33.9244 26.2392 35.4352 26.4222C36.946 26.6052 38.4786 26.4321 39.9105 25.9167C41.3424 25.4014 42.6339 24.5582 43.6816 23.4544C44.7293 22.3507 45.5041 21.0171 45.9442 19.5603C46.3843 18.1035 46.4773 16.5639 46.2159 15.0647C45.9545 13.5655 45.3459 12.1483 44.4388 10.9264C43.5317 9.70447 42.3512 8.7118 40.9918 8.02775C39.6324 7.34371 38.1318 6.98727 36.6099 6.98695V6.98195Z" fill="black"/>
</svg>
