<svg width="165" height="36" viewBox="0 0 165 36" fill="none" xmlns="http://www.w3.org/2000/svg">
<path d="M164.213 25.4571C164.076 25.4571 163.939 25.4845 163.802 25.4845H154.523C154.413 27.0995 155.262 29.043 156.986 29.8368C158.437 30.4938 160.764 30.5212 162.543 28.3039L164.021 29.4536C163.394 30.4896 162.441 31.2885 161.311 31.7256C159.569 32.4149 157.627 32.4051 155.892 31.6982C155.054 31.3708 154.305 30.8508 153.706 30.1802C153.107 29.5097 152.674 28.7075 152.442 27.8386C151.793 25.7693 151.861 23.5415 152.634 21.5153C153.401 19.5171 154.797 18.0937 156.904 17.5736C159.751 16.8892 163.063 17.902 163.967 21.9533C164.076 22.4734 164.131 23.0209 164.24 23.541V25.4571H164.213ZM161.749 23.4588V23.2125C161.695 22.8293 161.667 22.446 161.585 22.0902C161.038 19.7361 158.711 18.6411 156.658 19.7908C155.262 20.5846 154.797 21.9259 154.578 23.4588H161.749Z" fill="black"/>
<path d="M18.8603 27.1818C16.7524 26.1055 14.746 24.8412 12.8655 23.4043C14.1794 23.1853 15.4386 22.9937 16.643 22.5283C14.2068 22.9115 11.9622 22.5283 10.046 20.8859C11.4872 20.8541 12.9162 20.6143 14.2889 20.1742C11.6884 19.791 9.22484 19.1614 7.6098 16.8073C9.22484 17.2452 10.8125 17.6285 12.5096 17.5463C12.4275 17.519 12.3454 17.4642 12.2633 17.4369C10.0734 16.6978 7.96566 15.7671 6.10427 14.371C4.89425 13.5093 3.89329 12.3867 3.17531 11.0862C2.87017 10.5533 2.66601 9.9687 2.5731 9.3617C3.9144 10.2377 5.22832 11.1684 6.59699 12.0169C7.95925 12.8776 9.45922 13.498 11.0315 13.8509C10.944 13.7902 10.8525 13.7353 10.7577 13.6867C7.77405 11.9348 5.11883 9.82705 3.03845 7.03496C1.62815 5.20102 0.637646 3.07984 0.136867 0.821198C0.0821202 0.574837 0.0547468 0.328481 0 0C0.109494 0.0821202 0.136867 0.109491 0.16424 0.164238C3.31218 4.48924 7.47294 7.41819 12.4549 9.25221C14.2889 9.93655 16.0956 10.6209 17.8475 11.4147C19.9279 12.296 21.6864 13.7966 22.8842 15.7123C22.9832 15.8671 23.0311 16.049 23.021 16.2324C22.7558 20.1207 21.3674 23.8483 19.0245 26.9628C18.9882 27.048 18.9319 27.1231 18.8603 27.1818Z" fill="black"/>
<path d="M37.392 22.7197C34.4631 26.8804 30.8772 30.3021 26.2511 32.6289C19.0519 36.2421 11.0315 36.2421 7.00757 35.3662C11.6496 34.6698 15.9267 32.4445 19.1614 29.0429C22.5009 25.5665 24.1981 21.3236 24.5813 16.4512C25.6215 18.2578 26.0321 20.174 26.6343 22.0627C29.1253 18.3947 32.4648 16.3143 37.0088 16.5333C36.9958 16.55 36.9792 16.5636 36.9603 16.573C36.9413 16.5825 36.9205 16.5876 36.8993 16.588C36.8719 16.6154 36.8172 16.6154 36.7898 16.6428C36.2779 16.819 35.8314 17.146 35.5089 17.5809C35.1864 18.0157 35.0031 18.538 34.9832 19.079C34.9011 19.8181 34.7916 20.5572 34.6547 21.2963C34.444 22.3066 34.0346 23.265 33.4503 24.1157C33.3898 24.2129 33.335 24.3134 33.286 24.4168C34.5452 23.5956 35.8591 22.8839 37.392 22.7197Z" fill="black"/>
<path d="M40.8412 29.6726C41.5256 30.1927 42.2099 30.6854 42.9216 31.2329C41.4405 31.3317 39.9707 30.9159 38.7609 30.0559C38.921 30.2251 39.095 30.3808 39.281 30.5212C39.4726 30.6854 39.6642 30.8497 39.8832 31.0139C40.0748 31.1508 40.2664 31.315 40.5401 31.5066C37.3794 32.0173 34.1609 32.0634 30.9868 31.6435C31.0963 31.5614 31.1511 31.4793 31.2332 31.4245C33.9127 29.4527 36.2441 27.0473 38.1313 24.3074C38.1816 24.2282 38.25 24.162 38.3309 24.1144C38.4118 24.0668 38.5029 24.0392 38.5966 24.0337C40.0474 23.8968 41.4161 24.2253 42.8121 24.5812C44.2082 24.937 45.5768 25.3203 47.0003 25.5666C49.6555 26.032 52.2559 25.7035 54.829 24.9644C55.2123 24.8549 55.5955 24.718 55.9787 24.6085C56.0061 24.6085 56.0061 24.6085 56.0882 24.6359C55.9496 24.7805 55.8034 24.9175 55.6502 25.0465C54.1582 26.2209 52.4004 27.0106 50.5314 27.3459C48.7487 27.7056 46.9271 27.8344 45.1115 27.7291C47.1371 28.3313 49.2175 28.304 51.3526 28.2492C51.2041 28.3677 51.0487 28.4774 50.8873 28.5777C50.0421 29.0393 49.1097 29.319 48.1499 29.3989C46.4871 29.5234 44.815 29.3848 43.1954 28.9883C43.1322 28.9745 43.0669 28.9745 43.0037 28.9883C43.8797 29.5358 44.8925 29.8095 45.8779 30.1106C44.1808 30.6854 42.6205 30.2201 41.0329 29.6179C40.8686 29.6179 40.8412 29.6453 40.8412 29.6726Z" fill="black"/>
<path d="M141.165 23.2675C141.144 22.5707 141.08 21.8759 140.973 21.1871C140.892 20.8035 140.71 20.4486 140.445 20.1597C140.18 19.8707 139.843 19.6583 139.467 19.5447C138.516 19.2015 137.469 19.2308 136.538 19.6268C135.69 19.9827 135.06 20.5575 134.978 21.5703H132.46C132.533 21.1598 132.643 20.7568 132.788 20.3659C133.277 19.2877 134.158 18.4362 135.252 17.9844C136.895 17.2305 138.762 17.123 140.48 17.6833C142.478 18.3129 143.546 19.9005 143.573 22.1178C143.573 24.4445 143.573 26.7986 143.601 29.1254C143.595 29.9487 143.743 30.7657 144.039 31.5342C144.066 31.6164 144.066 31.7259 144.093 31.8627H141.63C141.548 31.8627 141.438 31.7259 141.411 31.6437C141.301 31.2605 141.219 30.8499 141.137 30.4119C141.055 30.4941 140.946 30.5762 140.863 30.6583C140.03 31.4296 138.985 31.9333 137.863 32.1041C136.74 32.2749 135.592 32.105 134.568 31.6164C133.226 30.932 132.35 29.8645 132.241 28.3042C132.104 26.6344 132.679 25.2657 134.13 24.3077C135.307 23.5412 136.621 23.2949 137.989 23.2401C138.893 23.2127 139.823 23.2127 140.727 23.2127C140.867 23.2633 141.016 23.282 141.165 23.2675ZM141.11 24.992H139.029C138.691 24.9829 138.352 25.0012 138.017 25.0467C137.337 25.1527 136.669 25.3176 136.018 25.5395C135.088 25.9227 134.65 26.6891 134.677 27.702C134.671 28.1789 134.819 28.6449 135.101 29.03C135.382 29.4151 135.781 29.6983 136.237 29.8371C137.852 30.4393 140.097 29.6181 140.973 28.1399C141.034 28.0401 141.071 27.9278 141.082 27.8115C141.11 26.9081 141.11 25.9774 141.11 24.992Z" fill="black"/>
<path d="M108.098 31.9176H106.209C105.442 31.9176 105.442 31.9176 105.305 31.1785C105.251 30.9443 105.215 30.7064 105.196 30.4668C105.086 30.5763 105.004 30.6311 104.922 30.7132C103.198 32.2735 101.199 32.602 99.0369 31.8355C97.504 31.288 96.4912 30.1931 96.2996 28.4959C96.108 26.6619 96.7376 25.2111 98.38 24.2531C99.4826 23.6331 100.728 23.3122 101.993 23.3224C102.924 23.295 103.855 23.295 104.813 23.295H105.251C105.236 22.5966 105.163 21.9007 105.032 21.2146C104.945 20.8327 104.756 20.4812 104.487 20.197C104.217 19.9129 103.876 19.7065 103.499 19.5996C102.567 19.2612 101.543 19.2807 100.625 19.6543C99.7486 20.0102 99.0917 20.585 99.0096 21.6252H96.5733C96.5791 21.067 96.7301 20.5198 97.0113 20.0376C97.7043 18.8982 98.8137 18.0734 100.104 17.7382C101.455 17.3144 102.899 17.2859 104.265 17.6561C106.373 18.2035 107.605 19.846 107.605 22.0632V28.3865C107.605 29.5088 107.66 30.6311 108.07 31.6713C108.095 31.7123 108.105 31.7607 108.098 31.8081C108.125 31.7808 108.098 31.8355 108.098 31.9176ZM105.169 25.0469C104.128 25.0469 103.116 24.9922 102.13 25.0743C101.433 25.1278 100.749 25.2942 100.104 25.567C99.0917 25.9776 98.6811 26.7988 98.7358 27.8937C98.7906 28.8792 99.4202 29.6183 100.406 29.9467C102.048 30.4668 104.156 29.673 105.032 28.2222C105.1 28.1237 105.147 28.0117 105.169 27.8937V25.0469Z" fill="black"/>
<path d="M92.8505 28.2766L94.3286 29.4262C93.6608 30.5212 92.6361 31.3526 91.4271 31.7803C89.9102 32.322 88.2592 32.3604 86.7188 31.8898C85.7912 31.628 84.9441 31.1374 84.2554 30.463C83.5667 29.7886 83.0584 28.9521 82.7771 28.0302C82.036 25.8738 82.0943 23.5229 82.9413 21.4058C83.7351 19.3802 85.1859 17.9842 87.321 17.5462C89.4835 17.1082 91.4544 17.5188 92.96 19.2707C93.7235 20.2107 94.1988 21.3515 94.3286 22.5555C94.4381 23.5136 94.4655 24.4716 94.5476 25.4845H84.8301C84.6658 26.99 85.5144 28.9061 87.0473 29.7273C88.9361 30.7128 90.9891 30.2201 92.8505 28.2766ZM92.084 23.4588C92.0868 22.5801 91.8704 21.7145 91.4544 20.9405C91.2643 20.594 91.0064 20.2895 90.696 20.0449C90.3856 19.8004 90.0291 19.6208 89.6478 19.5171C86.8009 18.778 85.0764 21.0773 84.9396 23.4588H92.084Z" fill="black"/>
<path d="M118.691 27.5379H120.963C121.007 27.5448 121.048 27.5638 121.082 27.5928C121.116 27.6218 121.141 27.6596 121.155 27.7021C121.483 29.2076 122.386 30.0015 123.947 30.1657C124.771 30.2862 125.613 30.1822 126.383 29.8646C127.396 29.3993 127.834 28.5507 127.56 27.5379C127.489 27.2663 127.352 27.0165 127.161 26.811C126.97 26.6055 126.731 26.4508 126.465 26.3608C125.726 26.0871 124.987 25.8681 124.22 25.6491C123.372 25.4027 122.523 25.1564 121.702 24.8827C121.406 24.7642 121.122 24.6175 120.853 24.4447C118.636 23.1581 118.883 20.5577 120.005 19.2437C120.572 18.5572 121.322 18.0448 122.167 17.7656C123.787 17.1983 125.557 17.2372 127.149 17.8751C128.573 18.4499 129.558 19.4353 129.887 20.9956L129.969 21.5705V21.8168H127.533C127.396 20.5303 126.602 19.8186 125.397 19.4901C124.759 19.3209 124.087 19.3304 123.454 19.5175C123.109 19.6236 122.778 19.7706 122.468 19.9554C121.428 20.6124 121.209 22.4738 122.77 23.0486C123.728 23.3771 124.713 23.6235 125.671 23.8972C126.67 24.1418 127.629 24.529 128.518 25.0469C130.708 26.4156 130.461 29.4266 128.929 30.7679C128.033 31.5515 126.911 32.0307 125.726 32.1366C124.193 32.3282 122.687 32.2187 121.291 31.4796C119.895 30.7406 118.992 29.6456 118.746 28.0306C118.718 27.8664 118.718 27.7295 118.691 27.5379Z" fill="black"/>
<path d="M74.9483 22.5283H72.6763C72.6216 22.282 72.5942 22.063 72.5394 21.844C72.0741 20.1468 70.4591 19.134 68.6524 19.4078C67.1195 19.6541 66.1614 20.5574 65.7235 21.9809C65.1671 23.79 65.1576 25.7231 65.6961 27.5377C66.6542 30.7403 70.2674 30.6856 71.7456 29.2348C72.2508 28.7583 72.5709 28.1182 72.6489 27.4282H74.9483C74.9313 28.0562 74.7521 28.6691 74.4282 29.2074C73.2238 31.2604 71.3624 32.1911 69.0356 32.1638C65.5318 32.109 63.4241 29.7002 62.9861 26.607C62.7398 24.8551 62.7671 23.1305 63.342 21.4334C64.3 18.7234 66.6815 17.1905 69.5557 17.3548C71.2803 17.4642 72.731 18.0665 73.8534 19.4078C74.555 20.2973 74.9403 21.3954 74.9483 22.5283Z" fill="black"/>
<path d="M149.377 11.6611H146.968V31.8901H149.377V11.6611Z" fill="black"/>
<path d="M79.7113 11.6611H77.3025V31.8901H79.7113V11.6611Z" fill="black"/>
<path d="M113.244 31.89H110.808V17.6558H113.189V19.1887C113.572 18.8055 113.873 18.4497 114.229 18.1486C115.16 17.4095 116.255 17.2452 117.432 17.4368C117.479 17.435 117.527 17.4445 117.57 17.4645C117.613 17.4844 117.651 17.5143 117.68 17.5517C117.71 17.5891 117.73 17.6329 117.739 17.6795C117.748 17.7262 117.746 17.7743 117.733 17.8201C117.706 18.477 117.733 19.1066 117.733 19.7636C117.131 19.7636 116.556 19.7362 116.009 19.7636C115.455 19.7839 114.917 19.9553 114.454 20.2593C113.991 20.5633 113.62 20.9882 113.381 21.4881C113.296 21.6781 113.25 21.8826 113.244 22.0903V31.89Z" fill="black"/>
</svg>
