<svg width="162" height="29" viewBox="0 0 162 29" fill="none" xmlns="http://www.w3.org/2000/svg">
<path d="M0 12.4068C0.478758 12.0159 0.464106 11.42 0.618811 10.8977C1.20093 8.76665 2.31436 6.8182 3.85484 5.23482C7.79305 1.309 13.4829 1.61428 17.0366 5.92047C18.3618 7.52798 19.1312 9.40921 19.928 11.5687C21.2512 9.17716 21.7739 6.76722 22.1333 4.31523C22.2902 3.25557 22.38 2.1809 22.4303 1.11074C22.4806 0.013163 22.6308 -0.329666 23.8328 0.34773C25.94 1.5328 26.6633 3.00662 26.293 5.47138C25.6742 9.59771 24.7441 13.5945 23.0007 17.3866C22.2921 18.9314 22.4862 20.2524 23.7092 21.4251C25.8871 23.5219 27.8378 23.3086 29.5643 20.8127C29.8715 20.3696 30.0525 19.8052 30.6011 19.5251C30.8835 21.6301 29.0709 24.8868 27.2167 25.6416C25.1932 26.465 23.0671 25.7313 21.6061 23.4152C20.7364 22.0375 20.3121 22.303 19.4717 23.3965C18.4771 24.7082 17.2174 25.796 15.7748 26.589C14.3321 27.382 12.7387 27.8625 11.0982 27.9993C6.45741 28.4904 2.17036 25.0393 0.610927 19.6314C0.445708 19.0565 0.456222 18.4106 0.000744851 17.9382L0 12.4068ZM17.9393 14.6973C18.0059 12.0612 17.2276 9.47287 15.7183 7.31056C13.4878 4.19582 10.206 4.19169 8.07392 7.34624C6.0192 10.3855 5.63319 13.7826 5.9794 17.3299C6.15319 19.7969 7.11791 22.142 8.7303 24.0172C9.52447 24.9183 10.53 25.702 11.7215 25.6998C13.4608 25.6975 14.7566 24.6901 15.7412 23.2624C17.4043 20.8521 18.0002 18.156 17.9393 14.6958V14.6973Z" fill="black"/>
<path d="M161.048 23.7745C160.054 24.2794 158.939 24.5003 157.827 24.4128C154.649 24.3355 151.47 24.3355 148.293 24.2852C146.393 24.2559 145.941 23.8087 145.962 21.8918C146.025 16.1643 146.121 10.4365 146.194 4.70678C146.206 3.60319 146.547 2.71664 147.803 2.73767C149.066 2.76058 149.369 3.69707 149.359 4.77361C149.313 9.78649 149.298 14.7994 149.185 19.8119C149.16 21.0161 149.497 21.389 150.718 21.3514C153.278 21.2699 155.843 21.3912 158.406 21.3432C158.884 21.3098 159.363 21.3719 159.817 21.5259C160.271 21.6798 160.689 21.9225 161.048 22.2398V23.7745Z" fill="black"/>
<path d="M58.5073 28.9982C58.4991 23.0135 58.478 17.0266 58.5032 11.0419C58.5051 10.4036 58.0244 9.43665 59.3999 9.38972C60.7963 9.34165 60.2568 10.3093 60.3698 10.9555C60.3949 11.0979 60.4156 11.242 60.464 11.5469C61.1456 11.0828 61.7407 10.642 62.3727 10.2552C65.7548 8.17949 69.4485 8.76902 71.8727 11.7542C73.0343 13.2076 73.6274 15.0339 73.5416 16.8925C73.4558 18.751 72.6969 20.5149 71.4064 21.8551C70.1559 23.1308 68.4844 23.9086 66.7031 24.0436C64.9219 24.1786 63.1522 23.6616 61.7238 22.5888C61.2785 22.2647 60.9728 21.7421 60.372 21.6313C59.8723 22.0117 60.0544 22.5614 60.0502 23.0465C60.0333 25.0325 60.0438 27.0163 60.0438 29L58.5073 28.9982ZM65.8423 10.8267C65.0871 10.828 64.3397 10.9794 63.6435 11.2722C62.9474 11.5649 62.3163 11.9931 61.7871 12.5319C61.2579 13.0706 60.8411 13.7092 60.5609 14.4105C60.2807 15.1118 60.1428 15.8618 60.155 16.6169C60.1802 19.788 62.8034 22.4491 65.8971 22.4409C68.9908 22.4326 71.7605 19.5811 71.6936 16.4644C71.6847 15.7086 71.5256 14.962 71.2258 14.2681C70.9259 13.5741 70.4912 12.9467 69.9469 12.4222C69.4025 11.8976 68.7594 11.4865 68.0548 11.2125C67.3503 10.9386 66.5983 10.8073 65.8426 10.8264L65.8423 10.8267Z" fill="black"/>
<path d="M60.0455 28.9986C60.0455 27.0149 60.035 25.0311 60.0519 23.0451C60.056 22.56 59.8743 22.0103 60.3737 21.6299L60.3549 28.9986H60.0455Z" fill="black"/>
<path d="M135.174 24.4159C132.392 24.4709 129.672 23.593 127.448 21.9222C126.581 21.27 125.77 20.5426 126.604 19.3951C127.427 18.2641 128.351 18.7012 129.246 19.4098C131.171 20.9399 133.339 21.6883 135.824 21.3684C136.538 21.2836 137.227 21.0592 137.854 20.7079C138.761 20.1915 139.363 19.4578 139.345 18.3749C139.358 17.8558 139.204 17.3462 138.905 16.922C138.605 16.4978 138.176 16.1819 137.683 16.0213C136.004 15.4047 134.292 14.8779 132.592 14.3135C132.059 14.1359 131.522 13.9684 130.995 13.7762C128.807 12.9876 127.302 11.6313 127.107 9.1542C126.898 6.45776 128.009 4.50104 130.389 3.25515C133.341 1.71035 138.508 2.29988 141.016 4.45936C141.716 5.06016 142.289 5.74281 141.614 6.68981C140.987 7.56998 140.167 7.5114 139.316 7.018C139.007 6.83813 138.706 6.64588 138.394 6.46827C136.983 5.60988 135.333 5.22665 133.687 5.37482C133.022 5.4273 132.375 5.61663 131.787 5.93094C130.823 6.46189 130.232 7.23316 130.263 8.39119C130.258 8.88391 130.411 9.36522 130.7 9.76467C130.988 10.1641 131.397 10.4607 131.866 10.6111C133.541 11.2423 135.253 11.7714 136.948 12.344C137.627 12.572 138.322 12.7642 138.982 13.0361C141.039 13.8764 142.383 15.3266 142.536 17.61C142.695 19.991 141.809 21.9139 139.726 23.1914C138.368 24.0514 136.78 24.4784 135.174 24.4159Z" fill="black"/>
<path d="M116.91 24.1549C114.15 24.2671 111.438 23.4126 109.241 21.7386C108.365 21.1003 107.568 20.3527 108.371 19.207C109.19 18.0385 110.136 18.557 111.019 19.2217C113.252 20.9043 115.708 21.7281 118.507 21.0616C120.131 20.6771 120.985 19.6422 121.053 18.2165C121.131 16.6048 120.098 15.9635 118.791 15.5471C117.036 14.9838 115.267 14.4623 113.523 13.8746C110.11 12.7229 108.713 10.9566 108.867 8.0698C109.024 5.1015 110.859 3.04866 114.185 2.41332C116.98 1.82178 119.896 2.34739 122.308 3.87775C123.27 4.4838 124.127 5.293 123.326 6.50961C122.563 7.66764 121.581 7.20766 120.66 6.5787C119.702 5.88098 118.586 5.43097 117.411 5.2687C116.237 5.10643 115.041 5.23693 113.929 5.6486C112.834 6.0271 112.056 6.7334 112.002 7.97292C111.96 8.51839 112.107 9.06163 112.416 9.51244C112.726 9.96324 113.181 10.2945 113.705 10.4512C115.382 11.0783 117.096 11.6028 118.793 12.1717C118.988 12.2367 119.18 12.3077 119.376 12.3704C123.009 13.5618 124.755 15.7547 124.328 18.5935C123.831 21.9068 121.293 24.0119 117.621 24.1561C117.316 24.1655 117.006 24.1549 116.91 24.1549Z" fill="black"/>
<path d="M34.4639 23.5989C36.6065 19.0899 38.7115 14.6621 40.8165 10.235C41.5648 8.66513 42.3158 7.09668 43.0695 5.52961C43.2681 5.11656 43.4228 4.51577 43.8869 4.49699C44.3886 4.47822 44.5035 5.1053 44.6958 5.51309C47.338 11.107 49.9711 16.7056 52.5951 22.3091C52.775 22.6958 53.4272 23.235 52.7269 23.6113C52.0664 23.9665 51.2865 23.9166 50.8663 23.1137C50.2497 21.9369 49.537 20.7808 49.127 19.5308C48.5262 17.6995 47.4422 17.09 45.5568 17.3232C44.073 17.4454 42.5816 17.4433 41.0981 17.3168C40.1053 17.271 39.4655 17.5571 39.0746 18.5353C38.5834 19.7688 37.873 20.9163 37.4025 22.1558C36.8945 23.4881 36.086 24.0525 34.4639 23.5989ZM47.1023 15.4382L43.923 8.39578C42.7214 10.9274 41.5149 13.1034 40.6562 15.4446C42.7683 16.0077 44.9914 16.0054 47.1023 15.4378V15.4382Z" fill="black"/>
<path d="M103.191 21.5167C98.8952 24.8507 94.9799 24.8612 92.0281 21.7217C90.7373 20.3473 90.0061 18.5404 89.9779 16.655C89.9497 14.7696 90.6265 12.9417 91.8757 11.5292C94.7332 8.25152 98.427 8.20759 103.044 11.4166C103.373 11.0174 103.207 10.5451 103.21 10.1185C103.212 9.44973 103.605 9.39528 104.119 9.40505C104.613 9.41331 105.033 9.42382 105.03 10.1095C105.016 14.4032 105.015 18.6963 105.028 22.989C105.03 23.5493 104.733 23.6852 104.257 23.6724C103.795 23.6619 103.291 23.7475 103.272 23.0431C103.26 22.6015 103.227 22.155 103.191 21.5167ZM103.347 16.5917C103.333 13.2197 100.873 10.7869 97.5175 10.8263C96.7749 10.8241 96.0394 10.97 95.3539 11.2555C94.6684 11.541 94.0467 11.9604 93.5252 12.4891C93.0038 13.0178 92.593 13.6451 92.3169 14.3345C92.0408 15.0238 91.905 15.7613 91.9174 16.5038C91.911 19.7857 94.5241 22.4866 97.6741 22.4532C99.2028 22.4254 100.658 21.793 101.722 20.6944C102.785 19.5958 103.37 18.1205 103.348 16.5917H103.347Z" fill="black"/>
<path d="M77.4 11.7088C79.1434 10.0784 80.7258 8.95151 82.8872 9.00784C85.5532 9.07881 87.5091 10.6153 87.8813 13.2678C88.3285 16.4682 88.069 19.7001 88.1343 22.9181C88.149 23.6958 87.6597 23.6601 87.1205 23.6834C86.4412 23.7104 86.2385 23.4096 86.2385 22.7657C86.2407 20.0564 86.2948 17.3412 86.1675 14.6362C86.0004 11.1159 83.174 9.64431 80.1096 11.39C79.3161 11.8173 78.6563 12.4558 78.203 13.2348C77.7498 14.0138 77.5209 14.9029 77.5416 15.804C77.4935 18.001 77.4894 20.1999 77.4747 22.3992C77.4706 23.0702 77.6002 23.7097 76.5217 23.7078C75.5184 23.7055 75.4974 23.1956 75.4996 22.4536C75.5164 16.6757 75.5172 10.8972 75.5019 5.11807C75.5019 4.41138 75.4474 3.84513 76.4906 3.8365C77.6234 3.82824 77.3959 4.53455 77.3978 5.15975C77.4064 7.22723 77.4 9.2966 77.4 11.7088Z" fill="black"/>
<path d="M56.0617 13.9495C56.0617 16.8111 56.0512 19.6709 56.07 22.5303C56.0741 23.2062 56.0572 23.7007 55.1294 23.6944C54.1572 23.688 54.2409 23.1071 54.2409 22.4778C54.2449 16.6541 54.2436 10.8317 54.2368 5.01078C54.2368 4.33489 54.2473 3.84036 55.1774 3.84674C56.1556 3.85312 56.0636 4.43815 56.0636 5.06335C56.0596 8.02552 56.059 10.9876 56.0617 13.9495Z" fill="black"/>
<path d="M40.6558 15.4444L47.1027 15.438C44.9915 16.0056 42.7681 16.0078 40.6558 15.4444Z" fill="black"/>
</svg>
