<svg width="31" height="32" viewBox="0 0 31 32" fill="none" xmlns="http://www.w3.org/2000/svg">
<g filter="url(#filter0_d_33455_267)">
<mask id="mask0_33455_267" style="mask-type:alpha" maskUnits="userSpaceOnUse" x="4" y="1" width="23" height="23">
<path fill-rule="evenodd" clip-rule="evenodd" d="M4.53491 1.29932H26.6854V23.6083H4.53491V1.29932Z" fill="white"/>
</mask>
<g mask="url(#mask0_33455_267)">
<path fill-rule="evenodd" clip-rule="evenodd" d="M17.1951 16.1246C18.4961 16.1246 19.555 17.134 19.555 18.3747V21.5657C19.555 21.8323 19.7776 22.046 20.0629 22.0523H22.1223C23.7453 22.0523 25.0646 20.8012 25.0646 19.2638V10.2136C25.057 9.68454 24.7945 9.18659 24.3439 8.85566L17.22 3.40108C16.2637 2.67387 14.9261 2.67387 13.9665 3.40315L6.89129 8.85359C6.42342 9.19489 6.16085 9.69283 6.15545 10.2312V19.2638C6.15545 20.8012 7.47477 22.0523 9.09771 22.0523H11.1766C11.4695 22.0523 11.7072 21.8292 11.7072 21.5554C11.7072 21.4952 11.7147 21.435 11.7277 21.378V18.3747C11.7277 17.1413 12.7801 16.1329 14.0714 16.1246H17.1951ZM22.1223 23.6084H20.0434C18.8527 23.5814 17.9342 22.684 17.9342 21.5657V18.3747C17.9342 17.9919 17.6025 17.6807 17.1951 17.6807H14.0768C13.678 17.6828 13.3485 17.995 13.3485 18.3747V21.5554C13.3485 21.6332 13.3377 21.7079 13.315 21.7784C13.1983 22.8054 12.2842 23.6084 11.1766 23.6084H9.09771C6.58118 23.6084 4.53467 21.6591 4.53467 19.2638V10.224C4.54547 9.19281 5.04035 8.24879 5.89505 7.6274L12.9563 2.1863C14.5111 1.00368 16.6776 1.00368 18.2292 2.18422L25.3412 7.63051C26.1764 8.24153 26.6713 9.18348 26.6854 10.2022V19.2638C26.6854 21.6591 24.6389 23.6084 22.1223 23.6084Z" fill="black"/>
</g>
</g>
<defs>
<filter id="filter0_d_33455_267" x="-1.62622" y="0.261719" width="33.9326" height="32.8972" filterUnits="userSpaceOnUse" color-interpolation-filters="sRGB">
<feFlood flood-opacity="0" result="BackgroundImageFix"/>
<feColorMatrix in="SourceAlpha" type="matrix" values="0 0 0 0 0 0 0 0 0 0 0 0 0 0 0 0 0 0 127 0" result="hardAlpha"/>
<feOffset dy="4"/>
<feGaussianBlur stdDeviation="2"/>
<feComposite in2="hardAlpha" operator="out"/>
<feColorMatrix type="matrix" values="0 0 0 0 0 0 0 0 0 0 0 0 0 0 0 0 0 0 0.25 0"/>
<feBlend mode="normal" in2="BackgroundImageFix" result="effect1_dropShadow_33455_267"/>
<feBlend mode="normal" in="SourceGraphic" in2="effect1_dropShadow_33455_267" result="shape"/>
</filter>
</defs>
</svg>
