<svg width="94" height="29" viewBox="0 0 94 29" fill="none" xmlns="http://www.w3.org/2000/svg">
<path d="M0.158327 0.369555C0.0365433 0.415491 8.21614e-06 2.6779 8.21614e-06 11.1763C8.21614e-06 23.3382 -0.0121702 23.0856 0.901208 24.9231C1.31527 25.7499 1.59538 26.1174 2.28954 26.7605C3.70224 28.0812 4.93225 28.6669 6.78337 28.8966C9.15815 29.1952 11.3868 28.4832 13.0918 26.8639C14.0782 25.9337 14.6019 25.1183 15.0525 23.8435L15.3448 22.9937V11.6472V0.289164L13.0065 0.312134L10.6561 0.346586L10.5952 11.5438C10.5221 24.0502 10.6074 23.0626 9.65746 23.8206C8.80498 24.4981 7.68457 24.7049 6.74683 24.3374C6.21098 24.1306 5.28542 23.3382 5.07839 22.9133C4.96879 22.7066 4.92007 19.5714 4.87136 11.4864L4.81047 0.346586L2.55747 0.323618C1.31527 0.312134 0.231397 0.335102 0.158327 0.369555Z" fill="black"/>
<path d="M19.7291 2.52839V4.76784H23.9793C26.3298 4.76784 28.2661 4.81378 28.3027 4.8712C28.3757 4.96307 28.2296 5.47987 28.0104 5.97369C27.9495 6.10002 27.5111 7.31736 27.0361 8.67251C26.5612 10.0277 26.1227 11.245 26.0618 11.3713C26.0009 11.4977 25.6478 12.4738 25.2702 13.5534C24.8927 14.6214 24.5274 15.609 24.4786 15.7354C24.4178 15.8617 24.0646 16.8379 23.6871 17.9174C23.3095 18.9854 22.9564 19.9731 22.8955 20.0994C22.8346 20.2257 22.3961 21.4431 21.9212 22.7982C21.4462 24.1534 21.0078 25.3707 20.9469 25.4971C20.7886 25.8301 19.7291 28.816 19.7291 28.9194C19.7291 28.9653 23.1634 28.9883 27.3771 28.9768L35.0129 28.9424V26.7603V24.5783L30.8114 24.5439C28.4975 24.5324 26.549 24.4979 26.4759 24.475C26.3541 24.429 26.5855 23.6366 27.0726 22.4537C27.1092 22.3618 27.4502 21.3972 27.8277 20.3291C28.2052 19.2496 28.5584 18.2734 28.6193 18.1471C28.6802 18.0208 29.0334 17.0331 29.4109 15.9651C29.7762 14.8855 30.1294 13.9323 30.1903 13.8405C30.2512 13.7371 30.3364 13.4844 30.3852 13.2662C30.4339 13.048 30.5191 12.7954 30.58 12.692C30.6409 12.6002 30.9941 11.6355 31.3594 10.5674C31.737 9.4879 32.0901 8.51173 32.151 8.3854C32.2119 8.25908 32.5651 7.27142 32.9426 6.20338C33.3202 5.12385 33.6611 4.17065 33.6977 4.07878C34.063 3.19448 35.0251 0.392307 34.9764 0.346371C34.9399 0.311918 31.4934 0.28895 27.3162 0.28895H19.7291V2.52839Z" fill="black"/>
<path d="M39.4214 0.358412C39.3727 0.404348 39.3362 5.41152 39.3362 11.4867C39.3362 21.8456 39.3483 22.5921 39.5554 23.3845C39.8598 24.51 40.1886 25.199 40.8219 25.9914C42.5147 28.1275 45.2305 29.23 47.9706 28.897C50.3089 28.6213 52.1113 27.5303 53.4265 25.6354C54.0233 24.7511 54.2181 24.3262 54.4982 23.2582C54.6566 22.6036 54.6809 21.1565 54.6566 11.4293L54.62 0.346928H52.3061H49.9922L49.9313 11.4293C49.8583 23.6831 49.9192 22.9136 49.0789 23.6831C47.5687 25.0727 45.267 24.6707 44.3293 22.8562C44.171 22.5576 44.1344 20.8465 44.0857 11.4293L44.0248 0.346928L41.7597 0.312473C40.5175 0.300989 39.4701 0.323959 39.4214 0.358412Z" fill="black"/>
<path d="M65.3369 0.415518C64.9351 0.472939 64.4966 0.564814 64.3627 0.622236C64.2287 0.679657 63.8755 0.817469 63.5711 0.932312C62.8404 1.20794 61.6347 2.01184 61.0745 2.59754C60.4169 3.29808 59.6131 4.51542 59.3817 5.20448C58.9677 6.41034 58.9311 7.58174 58.9677 18.3196L59.0042 28.9426L61.3546 28.977L63.6929 29V18.1014C63.6929 7.47838 63.705 7.1683 63.9364 6.57112C64.2287 5.8476 64.7646 5.33081 65.5562 5.00925C66.8471 4.49245 68.2476 4.8944 69.0392 6.01987L69.4776 6.64002L69.5385 17.7913L69.5994 28.9426H71.9133H74.2272V17.5731C74.2272 6.7319 74.215 6.16916 73.9958 5.51456C73.4234 3.80339 72.1203 2.1841 70.7442 1.48356C70.4884 1.34575 70.1961 1.18497 70.1109 1.11606C69.8186 0.886375 68.6251 0.530361 67.7726 0.404034C66.7984 0.277706 66.3599 0.277706 65.3369 0.415518Z" fill="black"/>
<path d="M78.6723 14.6446V29H86.1985C90.327 29 93.7857 28.9541 93.8709 28.9081C93.9805 28.8277 94.0171 28.3109 93.9927 26.6917L93.9562 24.5785L88.6951 24.5441L83.4219 24.5211L83.3975 12.4281L83.361 0.346601L81.0227 0.312149L78.6723 0.289181V14.6446Z" fill="black"/>
</svg>
