<svg width="18" height="22" viewBox="0 0 18 22" fill="none" xmlns="http://www.w3.org/2000/svg">
<path fill-rule="evenodd" clip-rule="evenodd" d="M3.30991 14.7369C4.84855 14.221 6.88689 14.0654 8.98479 14.0654C11.0954 14.0654 13.1343 14.2271 14.6709 14.7497C15.4434 15.0124 16.1479 15.3856 16.6662 15.9288C17.203 16.4915 17.5063 17.2031 17.5063 18.0441C17.5063 18.8869 17.2003 19.5981 16.6603 20.1587C16.1395 20.6994 15.4325 21.069 14.6593 21.3284C13.1209 21.8444 11.0828 22.0002 8.98479 22.0002C6.8743 22.0002 4.83506 21.8389 3.29824 21.3164C2.52559 21.0538 1.82101 20.6806 1.30259 20.1373C0.765563 19.5745 0.46228 18.8628 0.46228 18.0216C0.46228 17.1785 0.768296 16.4672 1.30842 15.9065C1.82939 15.3657 2.53649 14.9962 3.30991 14.7369ZM2.4708 17.0263C2.21452 17.2923 2.07629 17.6046 2.07629 18.0216C2.07629 18.4402 2.21443 18.755 2.47029 19.0231C2.74475 19.3107 3.18452 19.573 3.81773 19.7883C5.09262 20.2217 6.91113 20.3862 8.98479 20.3862C11.0484 20.3862 12.8675 20.227 14.146 19.7981C14.7811 19.5851 15.2225 19.3248 15.4979 19.039C15.7541 18.7729 15.8923 18.4608 15.8923 18.0441C15.8923 17.6257 15.7542 17.3111 15.4984 17.043C15.224 16.7553 14.7843 16.493 14.1512 16.2777C12.8766 15.8442 11.0584 15.6794 8.98479 15.6794C6.92109 15.6794 5.10168 15.8385 3.82297 16.2672C3.18771 16.4802 2.74623 16.7404 2.4708 17.0263Z" fill="white"/>
<path fill-rule="evenodd" clip-rule="evenodd" d="M3.27066 6.33118C3.27136 3.17608 5.82993 0.619385 8.98478 0.619385C12.1403 0.619385 14.6979 3.17699 14.6979 6.33248C14.6979 9.48776 12.1405 12.0466 8.98478 12.0466H8.94994L8.94733 12.0466C5.80234 12.0359 3.2607 9.47666 3.27066 6.33118ZM3.27066 6.33118C3.27066 6.33075 3.27066 6.33031 3.27066 6.32988L4.03924 6.33248H3.27066C3.27066 6.33205 3.27066 6.33161 3.27066 6.33118ZM8.98478 2.15654C6.67803 2.15654 4.80782 4.02615 4.80782 6.33248V6.33509H4.80781C4.80003 8.63221 6.65581 10.501 8.95138 10.5094H8.98478C11.2911 10.5094 13.1607 8.63923 13.1607 6.33248C13.1607 4.02594 11.2913 2.15654 8.98478 2.15654Z" fill="white"/>
</svg>
