<svg width="18" height="19" viewBox="0 0 18 19" fill="none" xmlns="http://www.w3.org/2000/svg">
<path fill-rule="evenodd" clip-rule="evenodd" d="M8.81682 1.6302C4.84716 1.6302 1.62911 4.84825 1.62911 8.81792C1.62911 12.7876 4.84716 16.0056 8.81682 16.0056C12.7865 16.0056 16.0045 12.7876 16.0045 8.81792C16.0045 4.84825 12.7865 1.6302 8.81682 1.6302ZM0.320435 8.81792C0.320435 4.12549 4.1244 0.321533 8.81682 0.321533C13.5092 0.321533 17.3132 4.12549 17.3132 8.81792C17.3132 13.5103 13.5092 17.3143 8.81682 17.3143C4.1244 17.3143 0.320435 13.5103 0.320435 8.81792Z" fill="white"/>
<path fill-rule="evenodd" clip-rule="evenodd" d="M13.8079 14.2174C14.0631 13.9615 14.4774 13.961 14.7332 14.2162L17.8078 17.2827C18.0636 17.5379 18.0642 17.9522 17.809 18.2081C17.5538 18.464 17.1395 18.4645 16.8836 18.2093L13.8091 15.1428C13.5532 14.8876 13.5527 14.4733 13.8079 14.2174Z" fill="white"/>
</svg>
