<svg width="23" height="19" viewBox="0 0 23 19" fill="none" xmlns="http://www.w3.org/2000/svg">
<path d="M17.6843 8.30673C19.1315 8.1034 20.2456 6.86269 20.2487 5.35951C20.2487 3.87812 19.1688 2.64986 17.7528 2.41748" stroke="#130F26" stroke-width="1.5" stroke-linecap="round" stroke-linejoin="round"/>
<path d="M19.5938 11.7856C20.9953 11.9952 21.9735 12.4859 21.9735 13.4973C21.9735 14.1934 21.5129 14.6457 20.7681 14.93" stroke="#130F26" stroke-width="1.5" stroke-linecap="round" stroke-linejoin="round"/>
<path fill-rule="evenodd" clip-rule="evenodd" d="M11.4589 12.2146C8.12473 12.2146 5.2771 12.7198 5.2771 14.7375C5.2771 16.7542 8.10709 17.2739 11.4589 17.2739C14.7931 17.2739 17.6396 16.7739 17.6396 14.7552C17.6396 12.7364 14.8107 12.2146 11.4589 12.2146Z" stroke="#130F26" stroke-width="1.5" stroke-linecap="round" stroke-linejoin="round"/>
<path fill-rule="evenodd" clip-rule="evenodd" d="M11.4589 9.33494C13.6467 9.33494 15.4207 7.56205 15.4207 5.37316C15.4207 3.18531 13.6467 1.41138 11.4589 1.41138C9.27103 1.41138 7.4971 3.18531 7.4971 5.37316C7.4888 7.55375 9.24925 9.32768 11.4298 9.33494H11.4589Z" stroke="#130F26" stroke-width="1.5" stroke-linecap="round" stroke-linejoin="round"/>
<path d="M5.23263 8.30673C3.78444 8.1034 2.67133 6.86269 2.66821 5.35951C2.66821 3.87812 3.74813 2.64986 5.16417 2.41748" stroke="#130F26" stroke-width="1.5" stroke-linecap="round" stroke-linejoin="round"/>
<path d="M3.32288 11.7856C1.92137 11.9952 0.943115 12.4859 0.943115 13.4973C0.943115 14.1934 1.40372 14.6457 2.14856 14.93" stroke="#130F26" stroke-width="1.5" stroke-linecap="round" stroke-linejoin="round"/>
</svg>
