<svg width="26" height="26" viewBox="0 0 26 26" fill="none" xmlns="http://www.w3.org/2000/svg">
<path d="M0.243652 25.4323L2.02266 18.9721C0.9228 17.076 0.345825 14.9286 0.351835 12.7333C0.351835 5.85451 5.97734 0.261719 12.883 0.261719C16.2367 0.261719 19.386 1.55972 21.748 3.91647C24.116 6.27322 25.4202 9.40757 25.4142 12.7393C25.4142 19.6182 19.7887 25.2109 12.877 25.2109H12.871C10.7734 25.2109 8.71196 24.6846 6.87886 23.6916L0.243652 25.4323ZM7.1974 21.4366L7.57604 21.6639C9.17474 22.6089 11.0078 23.1054 12.877 23.1114H12.883C18.6227 23.1114 23.2986 18.4637 23.2986 12.7453C23.2986 9.97582 22.2168 7.37383 20.2514 5.41187C18.2861 3.44991 15.6657 2.37322 12.883 2.37322C7.14331 2.36724 2.46741 7.01494 2.46741 12.7333C2.46741 14.6893 3.01433 16.5974 4.0601 18.2484L4.30652 18.6432L3.25474 22.4654L7.1974 21.4366Z" fill="#F3F3F3"/>
<path d="M0.682373 24.9955L2.40128 18.7567C1.33748 16.9323 0.778535 14.8567 0.778535 12.7392C0.784546 6.09962 6.21171 0.698242 12.883 0.698242C16.1225 0.698242 19.1576 1.95438 21.4414 4.22738C23.7253 6.50039 24.9814 9.52707 24.9814 12.7452C24.9814 19.3847 19.5482 24.7861 12.883 24.7861H12.877C10.8516 24.7861 8.86219 24.2777 7.09521 23.3206L0.682373 24.9955Z" fill="black"/>
<path d="M0.243652 25.4323L2.02266 18.9721C0.9228 17.076 0.345825 14.9286 0.351835 12.7333C0.351835 5.85451 5.97734 0.261719 12.883 0.261719C16.2367 0.261719 19.386 1.55972 21.748 3.91647C24.116 6.27322 25.4202 9.40757 25.4142 12.7393C25.4142 19.6182 19.7887 25.2109 12.877 25.2109H12.871C10.7734 25.2109 8.71196 24.6846 6.87886 23.6916L0.243652 25.4323ZM7.1974 21.4366L7.57604 21.6639C9.17474 22.6089 11.0078 23.1054 12.877 23.1114H12.883C18.6227 23.1114 23.2986 18.4637 23.2986 12.7453C23.2986 9.97582 22.2168 7.37383 20.2514 5.41187C18.2861 3.44991 15.6657 2.37322 12.883 2.37322C7.14331 2.36724 2.46741 7.01494 2.46741 12.7333C2.46741 14.6893 3.01433 16.5974 4.0601 18.2484L4.30652 18.6432L3.25474 22.4654L7.1974 21.4366Z" fill="#F3F3F3"/>
<path fill-rule="evenodd" clip-rule="evenodd" d="M9.75153 7.51747C9.51713 6.99707 9.27072 6.98511 9.04834 6.97913C8.86804 6.97314 8.65768 6.97314 8.44733 6.97314C8.23697 6.97314 7.9004 7.05091 7.61191 7.36195C7.32343 7.67299 6.51807 8.42667 6.51807 9.96394C6.51807 11.4952 7.64196 12.9787 7.79823 13.188C7.95449 13.3974 9.96789 16.6454 13.1473 17.8955C15.7917 18.9363 16.3326 18.727 16.9036 18.6731C17.4746 18.6193 18.7547 17.9195 19.0192 17.1897C19.2776 16.4599 19.2776 15.8379 19.1995 15.7063C19.1214 15.5747 18.911 15.4969 18.5985 15.3414C18.2859 15.1859 16.7473 14.4322 16.4589 14.3245C16.1704 14.2228 15.96 14.169 15.7557 14.48C15.5453 14.7911 14.9443 15.4909 14.764 15.7003C14.5837 15.9096 14.3974 15.9336 14.0848 15.778C13.7723 15.6225 12.7626 15.2935 11.5666 14.2288C10.635 13.4034 10.004 12.3805 9.82365 12.0695C9.64335 11.7584 9.80562 11.5909 9.96188 11.4354C10.1001 11.2978 10.2744 11.0705 10.4307 10.8911C10.5869 10.7116 10.641 10.58 10.7432 10.3707C10.8454 10.1613 10.7973 9.98189 10.7192 9.82636C10.641 9.67682 10.028 8.13357 9.75153 7.51747Z" fill="#F3F3F3"/>
</svg>
